{"glyphs":{"0":{"ha":1280,"x_min":0,"x_max":1263,"o":"m 906 689 l 957 689 q 1046 612 1046 689 q 1008 485 1008 512 q 1123 242 1123 367 q 1225 115 1149 241 q 1263 90 1263 115 l 1251 64 q 1263 13 1263 41 l 1263 0 l 1251 0 q 893 332 1047 240 l 893 345 l 867 332 l 791 332 l 791 357 l 779 357 q 727 345 749 357 l 702 357 q 536 319 576 319 q 498 332 522 319 l 294 307 l 307 217 l 307 191 l 294 191 q 255 268 268 191 l 242 268 q 204 217 242 217 l 191 217 l 191 230 q 281 382 191 382 l 281 408 q 51 345 159 382 l 38 345 q 0 382 20 345 q 51 447 42 447 l 38 472 q 178 574 38 574 q 498 625 319 625 q 842 587 670 587 q 906 689 842 656 m 893 612 q 944 562 893 593 q 970 587 970 562 l 970 612 q 931 625 956 612 q 893 612 907 612 z "},"1":{"ha":1494,"x_min":0,"x_max":1440,"o":"m 882 947 l 960 857 q 947 675 947 694 q 986 545 986 608 l 973 480 q 1077 220 1000 462 q 1428 130 1141 182 l 1440 104 q 1350 78 1375 78 l 1155 117 q 1142 104 1142 117 l 1051 117 l 1013 117 l 1013 104 q 1194 13 1194 60 q 1129 0 1150 13 q 766 52 1051 26 q 610 104 766 104 q 454 182 610 126 l 428 182 l 428 142 q 493 117 493 142 l 493 78 l 480 78 q 338 156 374 78 q 273 247 298 165 l 286 273 q 273 311 273 298 l 260 311 q 130 273 130 286 q 0 363 2 341 q 78 402 13 402 q 117 376 117 389 q 311 480 287 376 q 571 571 311 552 q 675 545 618 545 l 675 610 q 831 844 760 844 q 882 947 854 947 m 922 130 l 986 117 l 999 117 l 999 142 q 973 169 999 169 l 960 169 q 922 130 941 169 z "},"2":{"ha":533,"x_min":0,"x_max":508,"o":"m 189 916 q 260 880 239 916 q 254 827 260 859 q 260 809 260 815 q 231 780 250 809 l 224 780 l 213 785 l 207 774 l 207 756 l 218 756 l 218 739 q 254 650 218 725 q 248 602 248 608 q 307 443 248 538 l 307 431 q 295 408 295 417 q 349 319 313 366 q 478 266 478 319 q 508 236 508 241 q 490 218 508 232 l 460 224 l 431 224 q 378 165 420 224 q 360 148 370 165 q 449 71 422 72 q 473 77 459 77 l 478 77 l 478 59 q 355 6 391 12 q 336 53 349 53 l 295 53 q 266 106 285 106 l 272 118 l 272 136 q 201 218 272 163 q 177 148 177 183 l 177 130 q 236 59 177 84 l 236 53 l 201 53 q 153 148 153 102 l 148 148 l 142 65 q 195 12 142 56 l 195 6 l 165 0 l 148 0 q 71 18 100 0 l 77 59 l 77 65 q 59 89 65 89 l 65 100 l 65 148 l 41 130 l 41 153 l 35 153 l 35 136 l 30 136 l 30 153 q 35 172 35 165 l 12 172 q 0 213 12 182 q 12 266 6 223 q 47 242 47 266 q 41 224 41 231 l 53 218 q 71 254 65 218 l 65 266 q 118 325 70 288 l 118 396 q 94 414 118 410 q 124 526 94 434 q 106 656 106 553 q 153 791 106 732 l 124 815 q 189 916 124 878 m 290 390 l 290 384 q 319 325 307 325 l 331 325 q 295 390 295 381 l 290 390 m 301 100 q 319 71 309 71 l 325 71 l 325 77 q 307 100 316 100 l 301 100 z "},"3":{"ha":990,"x_min":0,"x_max":969,"o":"m 222 812 l 222 799 l 249 812 l 262 812 l 445 694 l 498 694 q 694 720 571 694 q 969 511 901 720 l 969 498 q 943 380 943 412 l 943 367 q 969 314 969 335 q 956 210 969 302 l 969 210 q 878 0 920 0 l 851 0 q 890 131 861 96 l 890 197 q 772 301 890 210 l 733 301 l 733 275 q 760 131 760 148 l 654 39 l 537 39 l 537 52 q 654 104 537 70 l 681 144 q 589 314 681 257 q 498 222 498 314 q 262 26 481 222 q 210 0 241 26 l 92 0 l 92 13 q 104 26 92 26 l 92 52 q 236 288 205 257 q 301 340 274 288 q 144 602 205 547 l 26 602 l 26 681 l 0 681 l 0 746 l 26 746 q 222 812 61 746 m 183 66 q 367 236 217 66 l 367 262 l 353 262 q 183 66 183 163 z "},"4":{"ha":1283,"x_min":0,"x_max":1249,"o":"m 34 840 l 57 840 l 57 829 l 34 829 l 34 840 m 22 818 l 22 806 l 12 783 q 68 704 12 772 q 216 738 147 738 q 386 704 244 738 q 534 715 460 715 q 636 692 556 692 l 636 682 q 591 659 618 682 l 602 636 l 602 625 l 579 591 l 579 579 q 625 556 625 579 q 761 511 625 519 l 818 522 l 863 522 q 1101 443 966 522 l 1113 443 q 1204 500 1172 443 l 1204 511 q 1158 613 1204 553 l 1158 625 q 1249 534 1230 597 q 1101 397 1249 448 q 1056 273 1070 349 q 1010 193 1026 273 q 1022 159 1022 171 q 908 12 1006 159 q 874 0 886 0 q 840 12 852 12 l 840 45 q 920 79 920 57 l 897 113 q 920 136 901 136 l 908 250 l 920 295 q 908 307 908 295 l 829 295 l 772 295 l 659 307 q 534 193 659 288 l 522 193 q 500 216 500 193 l 500 239 q 591 318 591 295 q 511 431 591 431 l 488 454 q 454 443 467 443 q 511 386 454 386 l 522 386 l 522 363 l 465 352 q 420 477 420 414 l 409 477 l 409 420 q 477 273 409 340 l 477 261 l 420 261 q 340 511 383 336 q 182 602 270 511 l 170 602 q 102 477 170 547 l 102 465 q 148 431 102 431 l 148 420 q 125 397 148 397 q 102 443 102 397 l 79 443 l 79 386 l 125 307 q 102 284 125 284 q 22 636 67 284 q 45 659 45 636 l 45 682 q 0 783 0 742 l 0 795 q 22 818 3 818 m 465 591 l 454 522 l 477 522 l 477 591 l 465 591 z "},"5":{"ha":410,"x_min":0,"x_max":362,"o":"m 321 932 l 342 932 l 352 839 l 342 839 q 352 808 352 819 q 300 590 319 772 q 362 321 362 495 l 332 134 q 362 62 342 94 q 300 31 362 45 q 228 93 300 87 l 228 73 l 269 21 l 269 10 l 218 0 l 207 0 l 186 62 l 155 62 l 165 41 q 145 21 165 21 l 145 31 q 134 21 134 31 q 0 52 0 28 q 41 134 41 96 l 21 207 q 186 600 99 471 q 21 808 186 627 q 83 828 55 828 q 145 798 145 815 l 259 839 q 321 932 259 888 m 228 145 l 228 124 q 290 114 275 124 l 300 134 l 300 300 q 259 176 269 300 q 228 145 244 176 m 73 83 l 73 62 l 93 62 l 93 83 l 73 83 z "},"6":{"ha":810,"x_min":0,"x_max":783,"o":"m 210 888 l 210 852 q 233 888 233 852 l 245 888 l 245 852 q 233 760 245 823 q 292 584 233 584 q 760 467 714 582 q 783 374 783 393 q 724 233 783 351 l 713 233 l 713 257 q 760 362 760 327 l 760 397 l 654 269 l 654 222 l 701 152 l 701 128 q 584 0 654 0 l 561 0 l 561 12 q 595 35 561 35 l 595 47 l 526 47 l 526 70 q 631 140 602 70 q 526 292 561 292 l 526 315 l 537 338 l 514 351 l 444 351 q 280 280 280 311 q 269 245 280 245 l 280 222 q 269 210 280 210 l 280 187 l 280 175 q 199 0 280 59 l 140 0 l 140 12 l 210 82 q 105 467 210 233 l 105 584 q 94 595 105 595 l 105 619 l 105 713 q 0 806 105 726 l 0 818 q 23 841 3 841 q 70 829 50 841 q 163 852 113 852 l 187 852 q 210 888 187 888 m 701 233 q 736 175 728 233 q 701 233 709 175 z "},"7":{"ha":750,"x_min":0,"x_max":710,"o":"m 254 951 l 254 938 q 456 406 254 813 q 519 355 514 381 l 507 355 l 519 330 l 519 267 l 507 241 l 532 228 l 545 228 q 646 267 578 267 q 710 190 710 203 l 634 165 l 634 178 l 608 165 l 469 165 l 469 102 q 431 76 469 76 q 380 140 380 76 q 317 114 339 114 l 330 25 l 330 13 l 267 0 l 254 0 l 241 63 q 254 76 254 63 l 228 89 l 203 76 q 190 114 190 100 q 203 152 203 138 q 178 190 178 152 q 102 127 135 127 q 63 114 88 127 l 51 140 q 114 330 114 182 l 102 380 l 114 406 q 102 481 114 415 q 127 634 127 610 q 89 684 108 684 l 89 659 l 63 659 q 0 761 63 693 l 63 837 q 51 849 51 837 q 140 926 140 867 l 152 926 l 190 900 q 254 951 203 951 z "},"8":{"ha":1280,"x_min":0,"x_max":1226,"o":"m 751 806 l 817 729 q 806 574 806 591 q 840 464 840 518 l 829 409 q 917 188 852 393 q 1215 111 971 155 l 1226 88 q 1149 66 1171 66 l 983 100 q 972 88 972 100 l 895 100 l 861 100 l 861 88 q 1017 11 1017 51 q 961 0 979 11 q 652 44 895 22 q 519 88 652 88 q 387 155 519 107 l 365 155 l 365 121 q 420 100 420 121 l 420 66 l 409 66 q 287 132 319 66 q 232 210 254 141 l 243 232 q 232 265 232 254 l 221 265 q 111 232 111 243 q 0 309 2 290 q 66 342 11 342 q 100 320 100 332 q 265 409 244 320 q 486 486 265 470 q 574 464 526 464 l 574 519 q 707 718 646 718 q 751 806 727 806 m 784 111 l 840 100 l 850 100 l 850 121 q 829 144 850 144 l 817 144 q 784 111 802 144 z "},"9":{"ha":1428,"x_min":0,"x_max":1403,"o":"m 989 954 l 1008 954 l 1116 935 q 1187 954 1147 954 q 1205 935 1187 935 l 1205 954 l 1403 882 l 1403 846 q 1241 684 1241 813 q 1187 522 1187 554 l 1187 504 q 1259 342 1187 438 q 1152 90 1259 90 q 1133 108 1133 90 q 1205 270 1205 216 q 1044 486 1182 347 l 1044 468 q 1080 396 1080 424 q 899 234 988 234 q 846 252 865 252 l 1008 360 l 1008 396 q 882 540 895 540 q 629 342 882 505 q 450 180 629 212 q 234 36 342 180 q 0 0 216 18 q 180 144 0 38 q 306 378 306 323 l 306 612 q 270 648 306 648 l 108 648 q 54 738 67 648 q 234 899 111 747 l 360 935 q 557 791 399 935 l 629 791 q 989 954 860 954 m 414 342 q 360 252 414 311 l 378 252 l 468 270 l 468 324 q 414 342 449 324 z "}," ":{"ha":345,"x_min":0,"x_max":0,"o":""},"!":{"ha":1223,"x_min":0,"x_max":1198,"o":"m 191 627 l 198 627 q 206 635 206 627 q 436 587 412 587 l 436 595 q 682 547 652 547 q 976 452 868 547 q 1110 333 1042 452 q 1142 326 1142 333 l 1190 349 q 1198 326 1190 340 q 1126 246 1198 264 q 991 326 1053 246 l 983 254 q 1039 159 983 229 q 1103 79 1053 159 q 1158 24 1126 79 q 1142 0 1150 0 q 1063 64 1128 0 l 1007 103 q 983 47 1007 52 l 968 47 l 960 79 q 968 143 968 123 q 793 214 902 186 q 714 333 714 284 q 524 277 605 309 q 468 294 484 294 q 389 262 399 262 l 389 254 q 492 238 412 254 l 492 222 q 476 206 492 206 l 404 206 q 317 262 317 224 q 341 326 341 307 l 191 294 l 191 262 l 206 238 l 206 206 l 198 191 q 151 301 151 191 l 151 317 q 262 380 165 317 q 135 468 262 393 q 56 444 60 444 q 0 484 5 465 q 95 595 64 519 q 191 659 169 659 l 191 627 m 983 349 l 983 333 l 991 333 l 991 349 l 983 349 z "},"\"":{"ha":1245,"x_min":0,"x_max":1204,"o":"m 1006 880 q 1016 817 1016 864 l 1058 848 l 1058 827 l 1037 796 l 1037 785 q 1089 743 1067 785 q 1204 618 1148 627 l 1204 608 q 1120 555 1204 583 q 1016 597 1048 596 q 974 587 992 597 q 817 178 817 478 q 901 31 817 77 l 901 21 l 890 0 l 869 0 q 764 178 764 0 l 764 199 l 775 220 q 754 367 754 220 l 754 377 q 681 346 733 377 l 681 314 q 743 73 743 218 l 743 52 q 733 10 743 28 q 670 52 681 10 l 670 73 q 681 168 670 111 q 587 346 587 332 l 597 398 l 576 408 l 440 408 q 398 356 398 387 q 273 210 273 233 l 273 199 q 356 84 273 133 l 356 63 l 304 63 q 220 210 266 63 l 199 210 l 199 146 q 252 42 199 113 q 220 21 252 31 q 146 84 168 21 q 157 94 157 84 l 157 125 q 136 241 157 140 l 136 252 q 220 367 220 317 l 220 377 l 157 481 l 136 481 q 125 461 136 461 q 10 220 125 307 l 0 220 l 0 231 q 52 387 0 256 q 346 733 52 682 l 513 733 q 660 743 571 733 q 702 733 678 733 l 932 806 q 1006 880 986 880 z "},"#":{"ha":1400,"x_min":0,"x_max":1340,"o":"m 199 875 q 410 686 258 875 q 1130 598 410 617 l 1251 631 q 1340 609 1270 631 l 1340 598 l 1307 598 l 1318 576 l 1296 576 l 1274 587 q 1284 554 1274 575 l 1284 543 l 1263 554 q 1230 532 1263 532 l 1230 521 l 1251 488 q 1218 476 1240 488 l 1196 488 l 1196 476 l 1174 488 l 1163 488 l 1174 465 l 1174 454 l 1141 476 l 1141 454 l 1118 465 l 1118 443 l 1085 465 l 1085 443 l 1063 454 l 1063 432 l 1008 476 q 997 465 1008 465 q 941 543 997 527 q 1019 388 989 494 q 997 222 997 247 l 1030 199 q 964 0 1030 0 q 908 22 944 0 q 964 77 908 32 l 964 111 q 919 189 964 170 q 875 33 919 33 l 864 33 l 808 44 q 864 111 808 61 l 864 166 q 764 299 764 273 l 731 299 l 709 288 l 709 299 q 631 255 631 269 q 621 266 621 255 q 598 243 598 266 l 521 255 l 476 255 q 465 210 476 230 l 476 210 l 454 111 q 465 100 465 111 q 443 89 443 100 l 376 0 l 366 0 l 310 11 l 310 22 q 355 56 310 39 l 355 89 l 343 89 q 266 33 343 33 q 243 56 243 33 q 310 144 310 91 l 310 210 q 210 321 261 321 q 222 332 210 332 q 177 366 222 360 q 189 376 177 376 q 155 421 182 421 l 155 432 l 166 454 l 155 454 q 166 465 155 465 q 155 476 166 476 q 166 509 155 488 q 155 543 166 522 l 177 554 q 155 642 155 594 l 155 675 l 89 665 q 33 686 69 665 q 44 720 33 699 q 0 798 0 750 l 0 819 l 22 819 q 122 875 122 819 l 199 875 z "},"$":{"ha":1258,"x_min":0,"x_max":1226,"o":"m 156 925 q 290 892 201 925 q 646 680 359 680 l 791 680 q 1015 591 923 680 q 1093 424 1052 424 l 1126 424 q 1193 446 1156 424 q 1226 435 1215 435 l 1226 424 q 1103 368 1126 368 l 1081 379 l 1059 368 q 1025 390 1059 379 l 1025 379 q 1126 256 1025 309 q 1137 223 1137 256 q 1081 0 1137 0 l 1059 11 l 1037 0 l 1025 0 l 1025 22 q 1081 78 1025 33 l 1081 111 l 1059 100 l 981 100 l 981 111 q 1059 178 1059 159 l 1048 223 q 836 390 836 319 q 769 368 806 390 q 736 379 758 368 q 479 357 545 357 l 479 189 q 424 78 479 117 q 357 0 424 0 l 323 0 l 323 22 q 379 89 379 73 q 334 357 379 151 q 234 457 234 437 q 156 713 234 511 l 56 713 q 33 736 33 713 q 56 758 33 755 q 0 836 0 791 l 0 847 q 78 859 34 847 q 156 925 111 925 z "},"%":{"ha":470,"x_min":0,"x_max":420,"o":"m 269 925 q 355 892 355 918 l 345 817 q 355 807 355 817 l 334 807 l 334 785 q 323 667 334 741 q 387 463 353 615 l 355 387 q 366 376 355 376 l 355 323 l 366 258 q 345 193 345 223 l 345 161 q 420 118 402 161 l 420 108 l 355 108 l 376 75 l 376 43 l 301 43 q 248 161 301 149 l 248 172 q 140 108 191 130 q 97 0 118 0 l 33 0 q 54 86 33 9 q 0 248 54 112 q 64 420 0 310 q 129 688 97 610 l 118 742 l 97 732 q 43 828 43 787 q 108 892 108 861 l 118 892 q 129 882 129 892 q 269 925 239 925 z "},"&":{"ha":1683,"x_min":0,"x_max":1655,"o":"m 744 872 q 808 770 777 770 q 898 564 869 589 q 1244 436 996 436 q 1308 449 1265 449 l 1321 449 q 1655 205 1589 449 l 1655 167 q 1565 39 1655 92 l 1373 39 q 1257 0 1331 7 q 1219 39 1219 20 l 1232 64 l 1141 52 l 1128 52 q 1026 77 1038 77 l 885 77 q 692 90 821 77 q 667 64 692 64 l 372 64 q 256 39 340 64 l 256 64 q 141 26 198 64 l 26 26 q 0 52 0 26 q 77 115 0 74 q 564 243 112 167 l 551 308 l 551 347 q 616 513 551 357 l 616 551 q 590 603 590 583 q 538 590 562 603 q 397 692 428 621 l 397 770 q 500 783 448 783 q 667 898 557 852 l 744 872 z "},"'":{"ha":1147,"x_min":0,"x_max":1132,"o":"m 247 859 q 598 637 439 637 q 1015 507 932 637 q 1132 143 1080 262 l 1119 143 q 1093 169 1093 143 l 1067 156 q 989 338 994 263 l 976 338 l 976 286 q 1015 169 976 219 q 924 0 963 0 l 898 0 l 871 13 l 885 39 l 820 39 l 820 52 q 859 78 820 78 l 859 91 q 781 247 781 160 q 768 234 768 247 l 741 247 l 690 247 l 663 234 l 663 247 q 650 234 650 247 q 637 247 637 234 l 612 234 l 572 234 l 507 247 l 455 130 q 338 13 455 113 l 260 13 q 273 26 260 26 q 234 52 273 52 l 247 78 q 338 208 328 130 l 326 273 l 312 273 l 312 247 l 260 299 q 273 312 260 312 q 247 338 273 334 l 260 364 l 260 377 l 247 377 l 247 416 l 234 442 l 260 481 l 260 494 q 182 598 182 552 l 91 598 q 0 690 0 677 l 0 715 q 78 768 0 737 q 208 859 134 859 l 247 859 z "},"(":{"ha":1075,"x_min":0,"x_max":1006,"o":"m 136 811 q 174 806 153 811 q 247 741 247 774 q 263 700 263 710 q 307 648 275 687 q 358 616 349 648 q 423 591 423 600 q 548 567 545 570 q 716 540 669 567 q 768 556 732 556 q 857 586 857 570 q 890 602 890 600 q 892 600 892 602 l 933 618 l 933 616 l 960 632 l 960 629 q 968 632 963 629 l 974 629 l 979 632 l 982 632 l 979 627 l 990 627 q 987 624 990 624 l 987 621 l 993 624 l 1006 621 l 1006 618 l 996 616 q 998 613 996 613 l 996 608 l 1001 608 q 996 602 1001 602 q 998 600 996 600 q 993 594 998 594 q 979 583 987 583 l 982 578 l 971 575 q 974 572 971 572 q 955 564 974 567 l 955 562 l 963 562 q 949 556 963 556 l 952 551 l 928 548 q 930 545 928 545 l 930 543 q 898 524 909 536 l 903 524 l 903 521 l 892 521 l 895 515 l 879 513 l 879 510 l 887 510 l 887 507 l 873 505 l 873 502 l 879 502 l 879 499 l 868 499 l 868 496 l 873 496 l 873 494 l 871 494 q 854 499 865 494 l 857 494 q 849 496 854 494 q 846 491 846 496 l 836 496 l 838 491 l 825 491 l 819 494 l 819 488 l 817 488 l 811 491 l 814 486 l 811 486 q 806 491 806 486 l 803 491 l 808 483 l 806 483 l 798 488 l 795 488 l 798 483 l 795 483 l 787 488 l 787 480 l 779 486 q 765 472 767 479 q 776 461 769 461 q 773 458 776 458 l 776 445 l 776 431 q 792 415 781 431 q 789 412 792 412 q 792 410 789 410 q 789 407 792 407 q 792 404 789 404 q 789 401 792 401 q 798 396 789 396 l 798 393 l 792 393 l 792 391 l 795 385 q 792 382 792 385 l 795 377 l 792 377 q 795 374 792 374 q 792 372 795 372 q 798 366 792 366 q 795 363 798 363 l 800 355 l 800 353 l 795 353 q 798 350 795 350 l 795 345 l 800 345 l 800 342 l 795 342 l 795 339 l 798 334 l 795 334 q 800 315 795 315 l 803 315 q 792 274 792 286 q 830 220 792 255 q 854 163 854 220 q 852 141 852 144 q 854 95 854 113 l 852 76 q 854 71 854 76 q 819 54 854 57 q 784 65 795 57 l 779 62 l 779 71 q 817 92 785 92 q 814 95 817 95 l 817 106 q 806 157 814 157 q 724 236 787 197 q 713 220 717 229 q 751 146 713 201 q 724 62 751 133 q 703 8 703 16 l 700 8 l 694 11 q 665 0 694 3 q 662 3 665 3 q 654 0 659 3 q 632 11 632 4 q 629 8 629 11 q 621 19 625 8 q 656 41 621 27 l 662 38 q 692 100 679 38 q 632 206 692 147 q 591 285 598 256 l 578 282 l 564 282 q 553 296 559 283 q 556 298 556 296 l 556 307 q 553 304 553 307 q 551 307 551 304 q 545 298 545 307 l 543 298 l 543 304 l 540 304 l 540 298 l 534 301 l 534 293 l 532 293 l 532 298 l 526 298 l 526 288 l 515 293 l 513 288 q 510 290 510 288 l 496 288 l 494 288 l 494 290 l 496 296 l 494 296 q 472 288 488 292 q 467 296 467 292 q 461 290 461 296 q 458 293 458 290 l 453 290 l 453 296 l 445 290 l 445 296 q 442 293 442 296 q 439 296 439 293 l 429 290 l 429 296 l 426 296 l 418 290 l 412 293 q 410 290 412 290 l 404 293 l 404 290 l 399 293 l 393 290 q 374 301 387 301 q 369 293 369 301 l 366 293 l 366 298 l 363 298 l 358 296 q 328 304 358 301 q 323 263 323 278 l 323 250 l 320 244 l 323 244 q 312 182 312 200 l 312 157 l 301 141 q 266 92 301 92 l 244 92 q 209 54 233 54 q 157 65 176 54 q 165 76 161 76 q 190 92 165 92 q 220 214 216 92 q 217 304 217 279 q 206 328 217 309 l 209 334 q 203 336 203 334 q 176 396 176 387 q 146 456 176 400 q 149 464 146 458 q 144 491 149 468 q 146 502 146 496 l 146 507 q 125 567 125 534 q 109 635 109 624 l 109 648 l 106 654 q 76 665 76 656 q 0 708 0 679 q 8 716 4 716 l 3 724 l 3 727 q 11 724 5 727 l 24 732 l 33 727 l 41 727 q 5 776 5 762 q 16 808 5 790 q 95 795 29 808 l 98 795 q 119 811 113 795 q 122 808 122 811 l 127 811 l 136 811 z "},")":{"ha":927,"x_min":0,"x_max":903,"o":"m 745 954 q 758 920 758 951 l 758 907 l 753 899 q 758 883 758 899 l 762 883 q 800 945 794 945 l 804 928 q 800 874 804 910 q 845 816 813 853 l 845 779 l 903 712 l 903 704 q 866 683 886 683 l 845 687 l 841 687 q 862 629 862 649 q 850 612 860 612 q 837 633 842 612 q 774 675 802 644 l 770 675 l 770 654 q 728 529 770 586 q 699 399 728 454 q 637 142 652 378 q 650 104 643 117 q 699 75 695 104 l 691 62 q 621 87 645 62 q 604 142 611 142 l 604 167 q 600 233 600 209 l 600 333 q 591 358 600 345 q 533 125 551 330 q 549 83 533 106 q 591 50 591 75 q 574 37 591 43 q 508 75 525 37 q 487 142 498 142 q 504 366 496 189 l 458 366 l 433 370 q 325 420 351 413 q 300 408 316 420 q 275 279 292 320 q 220 146 220 205 q 233 87 220 115 q 271 66 271 81 q 258 54 264 54 l 245 54 q 179 196 200 54 q 208 271 208 243 q 200 333 208 302 l 191 333 l 183 329 q 121 229 162 276 q 79 117 79 208 l 79 96 q 83 75 79 82 q 113 50 83 67 l 113 33 l 92 29 q 41 117 41 29 l 41 129 q 46 167 41 144 q 41 183 41 174 q 66 233 41 210 l 66 245 q 8 220 37 220 l 0 220 l 0 225 q 79 408 52 286 q 150 591 79 523 q 346 646 206 630 q 587 720 514 646 q 670 825 605 774 q 745 954 732 940 m 416 0 l 412 0 l 412 12 l 416 12 l 416 0 m 341 4 l 337 4 l 337 12 l 341 12 l 341 4 m 283 0 l 279 0 l 279 8 l 283 8 l 283 0 z "},"*":{"ha":880,"x_min":-6,"x_max":858,"o":"m 725 814 q 782 747 725 764 q 858 643 782 709 q 820 614 858 614 l 829 595 q 801 586 819 595 l 744 595 q 640 282 744 479 q 611 121 611 141 q 668 54 611 54 l 668 26 l 621 16 q 545 197 545 43 l 545 216 l 535 216 q 526 149 535 187 l 535 149 l 526 130 q 564 54 526 96 l 564 45 l 516 35 q 459 254 459 35 l 336 292 l 336 282 q 269 301 288 301 q 155 111 243 223 l 155 102 q 222 26 155 47 l 231 7 l 212 -3 l 174 -3 q 117 35 117 -3 q 22 64 22 35 q 13 140 13 100 l 13 197 q 41 263 41 231 q -6 406 41 271 q 22 510 5 465 q 13 519 13 510 q 51 557 28 519 l 41 576 q 70 605 58 576 l 60 624 l 60 633 l 70 652 q 60 662 60 652 q 70 671 70 662 q 60 681 60 671 q 146 728 93 714 q 155 719 146 719 q 165 728 155 728 l 165 709 l 212 719 q 222 709 222 719 l 241 719 q 269 690 269 719 l 288 700 l 298 700 l 288 681 q 355 614 305 681 q 554 709 554 646 q 696 795 628 795 q 725 814 696 804 m 89 187 q 60 111 60 129 q 89 73 75 73 l 98 73 l 89 159 l 98 178 l 98 187 l 89 187 z "},"+":{"ha":981,"x_min":0,"x_max":955,"o":"m 105 903 q 241 829 241 903 l 231 808 q 388 713 296 713 q 514 734 431 713 l 535 734 q 840 556 791 734 l 829 493 l 829 399 q 955 199 829 286 l 955 157 l 945 157 q 861 241 945 191 q 882 42 882 126 q 777 0 879 34 q 745 10 756 10 q 798 63 745 24 l 798 136 q 661 357 798 204 q 598 535 626 535 l 577 535 q 399 430 442 430 l 399 399 l 388 378 q 420 147 388 286 q 409 115 409 127 q 420 73 409 92 q 409 31 409 55 l 399 31 l 378 42 l 378 31 l 357 42 q 378 105 357 62 q 336 388 378 139 l 326 388 l 315 283 l 315 147 l 326 126 q 283 21 304 21 l 231 21 q 273 63 231 60 l 273 168 q 220 451 273 368 q 105 766 168 692 q 94 755 94 766 q 84 766 84 755 l 63 755 q 0 787 10 755 q 31 819 16 819 q 105 903 47 903 m 315 420 l 315 399 l 326 399 l 326 420 l 315 420 m 829 94 l 829 63 l 840 63 l 840 94 l 829 94 z "},",":{"ha":1144,"x_min":0,"x_max":1125,"o":"m 185 783 q 342 684 279 783 q 299 584 342 636 q 826 199 826 370 q 840 157 840 199 l 840 85 l 1125 43 l 1125 28 q 1040 0 1101 28 q 598 43 677 28 q 413 28 505 28 l 199 28 l 199 43 l 271 114 l 271 271 q 157 427 157 334 q 85 570 157 463 l 85 612 l 71 612 l 71 555 l 28 555 q 0 669 28 569 q 185 783 71 783 m 399 214 l 385 185 q 399 128 399 160 q 385 114 385 128 l 413 100 l 470 100 q 513 185 513 114 l 470 214 q 413 199 445 199 q 399 214 413 214 z "},"-":{"ha":662,"x_min":0,"x_max":634,"o":"m 208 925 q 229 904 225 925 l 229 894 q 208 696 229 779 l 229 634 q 239 644 239 634 q 353 593 275 644 q 509 291 446 524 l 499 239 l 551 187 q 541 156 551 176 l 541 135 q 634 41 541 110 l 634 31 l 582 31 l 530 41 l 530 0 l 468 0 q 395 94 403 94 q 374 41 395 41 l 353 41 q 301 104 317 104 l 281 94 q 250 197 258 121 l 239 197 l 239 52 q 197 41 216 52 q 187 52 197 52 q 197 146 187 140 q 177 343 187 153 l 208 395 l 187 395 q 156 353 172 395 q 41 166 71 309 l 10 166 q 0 208 10 190 q 31 239 23 239 q 166 603 104 503 q 156 717 156 695 q 208 925 208 905 m 332 208 q 291 239 332 224 l 281 239 l 281 208 q 301 146 281 180 q 332 208 326 146 z "},".":{"ha":526,"x_min":0,"x_max":456,"o":"m 241 976 q 334 920 334 960 q 316 892 334 892 q 418 549 418 620 l 418 530 l 391 437 l 391 233 q 456 111 391 155 q 437 93 456 93 l 399 93 q 353 168 378 93 l 362 186 q 326 353 353 269 l 288 353 l 288 307 l 223 241 l 223 186 q 298 158 298 180 l 298 140 l 241 140 l 223 149 l 223 111 q 251 37 223 83 q 214 0 251 9 q 168 18 184 18 l 168 75 l 176 130 q 168 176 168 146 l 83 176 q 130 102 130 140 q 93 93 109 102 q 28 186 65 105 l 37 205 q 0 269 0 220 l 0 316 q 83 502 83 475 q 214 725 214 701 q 140 790 181 774 q 102 771 140 779 q 9 865 9 806 l 18 865 l 9 911 l 9 920 l 93 920 q 214 976 136 970 l 214 966 q 241 976 224 966 z "},"/":{"ha":386,"x_min":0,"x_max":382,"o":"m 277 821 q 300 798 300 818 l 300 705 q 254 636 254 659 q 347 324 254 570 l 347 313 l 336 254 q 382 162 366 254 q 347 58 347 90 q 359 46 359 58 l 336 35 l 324 35 q 300 58 300 35 l 313 116 q 277 46 277 104 l 277 0 l 231 0 q 208 23 208 0 q 243 116 227 51 q 139 151 190 116 q 81 104 108 104 l 81 81 l 92 58 l 69 46 l 46 46 l 12 69 q 46 151 46 127 q 12 370 23 220 q 81 497 43 453 l 81 521 q 0 578 31 578 l 0 602 q 69 752 0 645 q 81 787 81 774 l 116 787 q 139 752 116 752 l 220 752 q 277 821 220 788 z "},":":{"ha":438,"x_min":0,"x_max":411,"o":"m 278 966 l 300 966 l 300 959 q 213 871 213 931 l 213 856 l 262 848 q 293 864 262 856 q 411 780 411 827 l 407 761 l 407 742 l 399 742 q 361 776 370 776 q 316 738 316 749 l 316 730 q 361 517 361 614 q 297 262 361 446 q 300 213 300 230 q 258 182 300 191 q 248 171 248 174 q 297 45 248 141 l 297 34 q 236 0 278 0 q 179 31 179 16 l 179 34 q 186 83 179 50 q 106 347 169 175 q 76 498 106 418 q 68 513 76 513 l 68 510 l 83 415 q 80 357 83 406 l 95 293 q 54 258 82 258 l 45 258 q 19 297 19 277 q 34 354 31 319 q 26 441 26 395 l 26 456 q 4 541 4 492 l 4 578 q 7 620 4 594 q 4 631 4 627 q 15 688 10 688 q 0 761 0 720 q 54 822 0 792 q 149 848 54 844 q 278 966 202 966 m 26 749 l 26 734 l 31 734 q 38 757 31 745 l 34 757 q 26 749 26 756 m 111 635 l 111 631 l 118 628 l 118 631 l 111 635 m 194 541 l 168 544 l 163 536 q 205 479 163 514 q 217 453 217 465 l 201 449 l 182 453 q 232 404 182 445 q 205 385 222 385 q 201 350 205 370 q 217 248 205 292 q 236 312 224 248 q 258 385 258 343 l 255 385 q 239 380 248 380 l 229 380 q 258 422 254 395 q 304 456 300 443 l 304 464 q 281 449 281 452 q 251 529 260 449 q 229 548 235 548 q 194 541 200 541 z "},";":{"ha":1381,"x_min":0,"x_max":1356,"o":"m 1198 899 l 1230 899 q 1340 725 1340 821 q 1308 694 1340 694 l 1324 662 q 1308 457 1308 467 q 1356 268 1320 268 l 1340 79 l 1340 31 q 1293 0 1340 0 q 1245 16 1262 16 l 1245 63 q 1293 174 1293 63 l 1214 157 l 1198 189 l 1261 268 q 1056 536 1209 375 q 757 394 810 394 l 757 378 q 804 111 757 263 l 804 47 q 772 16 804 16 l 709 16 l 709 63 l 741 63 l 741 79 q 631 347 715 199 l 599 347 q 505 31 581 149 l 426 31 q 394 63 394 31 q 520 268 520 100 q 363 552 520 460 q 94 441 249 552 q 31 536 94 536 q 0 552 31 552 q 111 678 0 572 q 142 741 111 741 l 126 772 l 126 820 q 157 851 131 851 l 189 851 q 347 772 233 851 q 505 741 413 772 q 631 772 602 772 l 662 757 q 1056 820 983 820 l 1135 820 q 1277 772 1173 820 l 1277 788 q 1198 899 1277 804 z "},"<":{"ha":1147,"x_min":0,"x_max":1121,"o":"m 958 963 q 1031 918 1031 944 q 1053 878 1040 918 l 1064 884 q 1087 766 1087 806 q 1059 699 1072 711 q 1064 692 1064 699 q 980 625 1033 663 q 1008 524 980 611 q 1002 439 1008 510 q 1064 254 1023 303 q 1121 79 1097 254 q 1081 34 1105 34 l 1081 39 l 1070 34 l 1059 34 q 1025 51 1029 34 l 1031 90 q 991 96 1013 90 l 991 130 q 1019 186 1019 149 l 1019 197 q 907 338 925 292 q 828 422 899 338 q 772 428 821 422 q 648 377 741 428 q 507 360 610 368 q 467 366 500 366 l 467 360 q 490 293 467 330 q 484 220 490 290 q 507 107 484 207 q 462 0 507 61 l 422 0 q 389 17 393 0 l 389 22 q 422 73 389 52 l 428 113 q 338 360 400 241 q 237 569 237 453 q 203 614 224 605 l 186 648 q 191 653 191 648 q 90 699 177 683 q 22 749 22 699 q 0 794 8 749 l 0 811 q 12 822 2 822 l 79 822 q 141 856 102 822 q 225 941 225 867 l 225 958 q 293 817 264 939 l 344 755 l 355 760 q 389 726 368 726 l 389 721 l 383 709 q 648 625 481 625 q 817 675 679 625 q 935 659 898 670 q 997 783 997 725 q 929 862 975 862 l 907 862 q 862 766 862 862 q 828 805 844 767 q 822 811 822 805 q 817 873 822 834 q 907 963 832 963 l 958 963 z "},"=":{"ha":823,"x_min":0,"x_max":793,"o":"m 166 935 l 215 930 l 240 930 q 342 831 304 907 l 347 807 q 333 793 347 800 l 328 793 q 313 817 324 817 l 309 817 q 328 724 316 800 l 323 694 q 377 572 356 694 q 479 420 399 557 q 528 279 507 367 q 553 230 543 263 l 548 220 l 548 146 q 651 103 548 131 l 665 103 q 768 127 705 108 l 793 127 q 616 64 756 64 l 612 64 q 568 78 603 64 q 553 68 568 68 l 538 68 q 494 44 538 44 q 475 39 494 39 l 470 39 q 391 49 463 39 l 382 49 q 328 44 361 49 l 303 44 q 264 0 303 21 l 210 0 q 205 24 210 16 q 250 132 250 104 l 250 161 q 215 274 233 173 q 196 283 208 274 q 186 205 196 233 q 191 186 191 197 l 181 181 q 191 132 186 141 l 181 103 l 186 73 l 186 68 l 176 54 l 176 44 q 181 39 176 39 q 166 20 174 20 l 161 20 l 152 24 q 137 9 152 18 q 93 49 93 26 q 127 108 106 49 l 122 117 q 127 122 122 122 l 122 146 l 122 152 q 108 406 122 210 q 88 494 88 461 q 127 626 111 626 l 127 665 q 98 700 120 700 q 108 739 108 718 l 108 753 q 54 783 108 764 q 15 827 54 791 l 0 846 l 0 857 q 9 910 0 891 l 20 905 q 59 910 54 910 l 103 905 q 166 935 119 905 z "},">":{"ha":990,"x_min":0,"x_max":956,"o":"m 838 969 q 947 855 926 969 q 877 724 947 802 q 916 623 916 674 l 890 439 q 956 298 890 374 l 951 254 l 951 127 q 916 62 951 87 l 912 62 q 899 75 906 62 l 899 87 q 912 201 912 186 q 829 364 905 287 l 829 359 l 864 263 q 820 75 841 75 l 785 75 q 776 83 776 75 l 776 101 q 811 153 811 125 l 816 184 q 772 338 802 295 q 711 505 751 367 q 719 539 719 527 l 702 539 q 684 509 702 516 q 653 535 661 535 q 548 460 597 535 q 487 412 487 416 l 496 390 q 482 351 488 351 l 487 329 l 487 267 q 500 127 487 177 q 478 9 478 75 q 416 0 470 5 q 399 13 399 7 l 399 22 q 443 79 443 70 l 443 110 q 382 395 443 349 q 347 412 366 412 q 342 395 347 395 l 347 386 l 347 377 q 219 167 347 362 q 197 123 215 123 q 123 4 162 16 q 92 31 103 4 q 153 110 153 104 q 228 294 153 136 q 254 377 254 356 l 254 399 q 224 548 224 496 l 224 562 q 184 649 193 597 q 140 667 153 667 q 79 627 104 627 l 57 627 l 57 636 q 87 662 57 640 l 87 667 l 62 667 q 0 711 25 667 q 57 776 0 718 q 153 882 57 854 l 193 886 q 245 859 203 886 q 320 816 320 851 l 316 785 q 342 759 318 785 q 478 754 436 754 q 719 802 611 802 l 732 802 q 833 776 778 802 q 895 842 895 803 l 895 864 q 829 925 895 916 l 802 912 l 833 864 q 829 850 829 855 l 820 850 q 759 903 784 850 q 838 969 781 969 m 285 487 q 281 478 285 478 q 320 443 283 464 l 329 443 l 329 456 q 294 487 329 459 l 285 487 z "},"?":{"ha":996,"x_min":0,"x_max":930,"o":"m 114 963 l 119 963 q 158 936 158 963 l 163 936 l 163 963 l 169 963 q 239 876 169 955 q 419 664 260 811 q 506 642 455 642 q 571 729 545 686 q 566 734 566 729 q 593 762 573 734 q 587 767 587 762 q 680 810 641 810 l 686 810 q 838 680 807 810 q 816 571 832 590 q 865 430 865 528 q 860 408 865 418 q 920 218 860 324 l 930 81 q 903 54 928 67 q 827 76 827 62 l 827 81 q 882 169 882 115 q 844 223 869 205 q 832 180 832 184 l 832 125 q 827 119 832 119 l 832 109 q 827 87 827 99 l 800 87 l 767 92 l 756 87 q 729 103 729 94 l 729 109 q 772 136 729 114 q 783 174 783 158 q 659 359 783 185 q 582 403 633 403 q 403 315 403 360 q 387 191 387 292 l 387 125 q 321 27 345 35 l 304 27 q 299 33 299 27 q 283 27 289 27 q 229 38 278 27 q 180 22 229 28 q 153 49 153 31 q 218 131 153 73 q 229 191 224 179 q 185 468 229 336 l 191 479 q 174 544 174 503 l 163 538 q 147 598 147 590 q 153 642 147 612 q 131 707 143 707 l 76 691 q 0 734 37 691 l 0 745 q 114 871 101 820 q 136 898 122 871 q 114 963 136 918 m 582 637 q 729 642 683 642 l 756 642 q 772 675 767 642 q 718 734 764 734 q 648 680 691 734 l 582 637 m 642 446 l 637 435 l 642 435 l 648 446 l 642 446 m 261 403 l 261 392 q 283 381 270 392 l 283 387 l 261 403 m 724 365 q 751 326 738 330 l 751 332 l 724 365 m 294 250 l 294 169 l 299 169 l 299 250 q 304 267 304 261 q 294 250 294 267 z "},"@":{"ha":448,"x_min":0,"x_max":410,"o":"m 182 906 l 190 906 q 323 825 264 906 q 361 768 361 806 q 372 694 361 756 q 347 727 359 694 l 328 727 l 326 716 q 374 586 339 653 q 401 480 374 555 q 410 442 410 463 l 410 434 q 393 377 410 416 q 363 152 363 231 q 382 73 363 144 q 353 54 380 54 q 309 73 309 59 q 263 100 309 100 q 222 133 254 113 l 212 133 l 179 119 q 168 100 168 107 q 184 71 175 71 q 182 62 182 65 q 198 24 195 43 q 182 0 185 0 l 165 0 q 119 16 140 0 l 119 46 q 122 71 119 56 q 106 81 119 81 l 100 81 q 54 62 87 62 q 30 71 44 71 q 33 117 33 108 q 16 190 22 141 q 0 231 1 208 l 0 244 l 3 263 l 0 263 q 35 353 35 312 q 60 382 37 360 q 71 401 71 396 q 68 445 71 417 q 114 534 71 484 q 141 662 141 646 l 141 665 q 84 735 124 735 q 33 811 33 792 q 41 849 33 849 l 38 863 q 43 876 43 871 q 119 868 91 873 q 136 887 120 877 l 136 892 l 152 892 q 182 906 165 906 z "},"A":{"ha":1403,"x_min":0,"x_max":1340,"o":"m 1130 947 q 1235 891 1235 947 q 1340 863 1340 891 q 1193 758 1340 778 q 1221 660 1221 684 q 1186 568 1221 652 q 1165 541 1186 558 q 1193 491 1193 509 q 1130 442 1193 442 l 1130 435 q 1137 365 1137 374 q 1123 358 1123 365 q 1088 365 1114 365 q 1039 302 1088 337 l 1039 309 q 1046 337 1046 321 q 975 176 981 260 l 975 161 q 1046 126 975 151 q 1053 105 1046 105 q 975 63 1053 79 q 926 21 972 21 q 905 14 926 14 l 856 14 q 814 35 820 14 q 758 21 789 21 q 744 42 751 42 l 751 56 l 751 84 q 709 161 709 134 q 737 210 737 173 l 730 210 q 765 253 730 221 q 716 218 744 250 q 694 253 716 245 l 681 245 l 667 245 l 652 253 q 589 224 652 231 q 576 267 585 267 q 555 260 562 260 q 498 288 555 274 q 372 197 475 231 q 330 126 330 164 q 400 77 330 120 q 281 49 400 56 q 239 105 239 64 q 253 176 239 135 l 245 176 q 147 98 167 144 l 147 70 l 189 70 q 203 21 189 42 q 84 0 180 0 l 77 0 q 21 35 39 0 l 28 49 l 14 49 l 21 63 l 21 70 l 7 63 l 0 63 l 28 113 q 21 119 21 113 q 84 210 39 125 q 176 316 176 265 q 168 323 176 323 q 182 351 174 351 l 176 365 l 176 372 q 231 442 231 425 q 245 491 231 475 l 245 505 q 147 547 245 524 q 113 589 147 589 q 105 610 113 597 q 176 631 141 631 q 302 568 207 631 q 660 646 432 646 q 920 772 877 666 q 1031 899 934 812 q 1130 947 1031 941 m 751 224 l 744 210 l 751 210 l 758 224 l 751 224 z "},"B":{"ha":747,"x_min":0,"x_max":734,"o":"m 88 969 q 122 945 93 969 l 166 945 q 205 964 166 964 l 264 964 q 294 954 277 964 q 260 837 294 904 q 269 753 269 771 q 264 739 264 744 q 357 700 288 739 q 397 709 397 703 l 421 705 l 514 705 q 519 720 514 710 l 485 817 l 485 822 q 514 876 485 846 q 597 685 553 876 q 631 616 597 661 q 685 514 685 562 l 685 431 q 680 411 685 420 q 695 333 695 363 l 695 274 q 715 127 715 195 q 734 49 734 79 q 695 44 730 49 q 680 49 686 49 q 661 44 672 44 q 656 49 661 49 q 651 44 656 44 l 646 54 l 646 64 q 666 161 661 74 q 587 387 666 245 q 534 431 587 427 q 446 313 476 395 q 460 240 460 270 q 387 54 417 54 l 391 9 q 357 0 367 0 q 353 5 353 0 l 328 0 l 303 5 q 298 0 303 0 l 289 15 l 289 24 q 318 68 318 52 q 289 279 294 174 l 240 387 q 235 391 235 387 l 225 387 l 191 387 q 152 397 186 387 l 147 372 q 191 93 147 357 q 196 88 196 93 l 191 78 q 205 29 205 53 l 205 15 q 176 9 202 15 l 166 15 q 152 9 157 9 l 117 15 l 117 35 q 137 68 137 56 q 64 318 137 126 l 59 353 q 64 382 59 356 q 35 485 35 473 l 35 490 q 88 675 67 675 q 54 744 75 675 q 15 837 35 753 q 29 881 29 869 q 0 949 0 926 q 9 964 5 964 l 88 969 m 357 362 q 353 347 357 357 q 372 137 362 302 l 382 137 q 397 245 397 198 q 362 362 362 334 l 357 362 z "},"C":{"ha":1251,"x_min":0,"x_max":1233,"o":"m 155 569 q 338 474 251 569 q 459 425 384 425 q 557 368 469 422 q 709 311 580 357 q 800 319 753 319 q 812 311 812 315 q 907 334 860 334 q 872 353 907 338 q 804 414 804 408 l 804 417 l 808 417 q 876 406 823 417 l 854 433 l 854 436 l 857 436 q 994 383 903 436 q 998 387 998 383 q 1107 349 1050 376 q 1180 315 1107 332 q 1233 288 1182 307 q 1180 235 1208 235 l 1157 235 l 1149 239 q 1134 228 1149 228 q 1088 231 1095 231 l 1062 228 l 1036 231 q 956 190 996 231 q 922 171 926 171 l 922 167 q 967 144 922 163 q 1050 110 997 110 q 1112 57 1097 57 q 1157 23 1126 57 l 1157 7 q 1107 0 1123 0 q 1036 34 1082 0 q 1021 38 1029 38 l 1013 38 q 998 34 1004 38 q 994 38 994 34 l 975 34 l 903 34 q 831 42 838 42 l 812 42 q 743 76 779 76 q 732 72 736 72 q 690 91 699 83 l 683 87 q 516 186 606 97 q 357 243 390 243 q 209 326 293 243 l 167 326 q 117 285 117 292 l 114 285 l 98 296 l 76 296 l 76 303 q 95 315 95 306 l 87 315 q 57 303 68 303 q 0 334 16 312 l 0 345 q 26 357 18 345 l 34 353 l 38 353 q 91 368 47 358 q 220 402 167 402 q 224 391 224 395 l 231 391 l 231 398 l 250 398 q 266 372 250 391 q 345 410 307 372 q 159 550 218 550 l 106 550 l 106 565 q 155 569 153 569 m 876 110 l 876 106 l 888 106 q 937 98 920 106 l 937 102 q 899 121 917 110 q 876 110 876 119 z "},"D":{"ha":1236,"x_min":0,"x_max":1165,"o":"m 143 932 l 151 932 q 188 842 188 848 q 225 924 212 842 l 233 924 q 278 812 237 865 l 278 774 q 368 669 288 774 q 391 646 368 658 q 398 654 391 654 q 834 586 398 612 q 962 481 962 545 q 1007 421 974 481 q 1000 413 1007 413 q 1075 256 1042 261 q 1120 203 1120 256 q 1165 60 1165 121 l 1165 53 q 1149 30 1149 53 l 1112 30 q 1082 45 1112 45 l 1082 60 l 1112 90 l 1112 113 q 1044 195 1112 155 l 1059 113 l 1037 113 q 954 195 954 151 q 879 271 937 250 q 864 286 864 271 l 849 286 l 842 256 q 909 173 842 245 l 909 165 q 781 45 802 45 l 751 45 q 729 60 729 53 q 797 98 729 86 q 834 151 797 105 q 736 241 813 204 q 684 293 736 254 q 624 338 684 311 q 541 308 549 308 l 541 315 l 451 286 q 458 98 451 258 q 421 22 437 47 q 429 15 429 22 l 398 0 q 331 7 357 7 l 331 15 l 398 68 l 406 113 l 383 188 l 376 188 l 368 151 l 368 98 l 331 53 q 338 45 338 53 q 248 22 312 22 l 248 53 q 323 105 296 53 q 300 188 312 188 l 308 203 l 308 248 q 278 293 288 248 q 248 353 278 338 q 188 473 248 373 l 195 488 l 195 503 q 143 631 153 570 l 151 646 l 151 654 l 135 654 q 60 609 60 627 l 37 609 q 75 676 45 644 q 0 707 0 676 l 0 729 q 158 834 66 732 q 143 924 151 842 l 143 932 z "},"E":{"ha":955,"x_min":0,"x_max":933,"o":"m 186 976 q 216 873 216 899 l 216 857 q 267 691 248 816 q 509 611 344 611 q 777 530 719 611 q 827 369 827 460 q 819 310 827 347 q 929 199 860 259 l 929 195 q 924 144 929 174 q 933 47 933 66 q 890 21 933 24 q 882 30 890 30 q 865 26 875 26 l 865 34 q 895 77 865 52 l 895 102 q 806 237 895 193 l 806 233 q 793 157 798 168 l 798 157 l 793 149 l 793 144 q 798 140 793 140 l 789 102 l 793 102 l 785 81 q 789 77 789 81 q 760 64 770 64 q 713 72 729 72 l 713 81 l 721 81 l 717 89 l 726 94 q 730 89 726 89 q 738 102 730 102 l 747 98 l 747 102 q 743 106 743 102 q 772 144 766 106 q 755 199 762 199 l 730 186 l 730 191 q 747 220 747 215 q 632 339 747 226 q 577 412 615 412 l 564 412 q 361 361 547 412 q 322 356 345 356 q 280 361 317 356 l 267 170 q 276 102 276 106 q 237 13 262 102 l 224 0 l 220 0 l 203 13 l 170 13 l 170 17 l 182 34 q 165 43 176 34 l 157 43 l 149 38 l 144 47 q 186 85 144 71 l 191 94 l 191 132 q 165 420 191 256 q 123 526 123 479 q 132 632 132 606 q 127 743 127 713 l 72 730 l 38 730 q 0 781 0 749 l 4 789 l 0 814 q 68 844 0 827 q 123 890 68 879 l 123 959 q 157 903 157 919 l 165 903 l 165 907 q 186 976 171 976 z "},"F":{"ha":732,"x_min":0,"x_max":715,"o":"m 427 689 q 513 604 513 668 l 524 566 l 518 555 q 646 433 594 524 q 715 176 715 254 q 609 112 690 112 q 545 0 557 1 l 534 0 q 539 59 539 47 l 534 59 q 507 43 517 43 l 486 54 q 411 43 419 43 q 406 48 411 48 q 449 75 406 67 l 449 80 q 342 160 443 94 q 299 224 299 201 l 299 240 q 374 273 322 273 l 374 278 q 288 321 361 278 l 288 299 q 267 326 267 310 l 251 326 q 171 193 194 326 q 150 75 150 108 l 171 54 q 160 43 171 43 l 155 43 q 139 85 139 43 l 134 85 q 128 69 134 80 l 134 69 q 128 54 128 59 l 144 26 l 134 22 l 112 32 l 117 43 l 117 123 q 80 224 117 224 q 0 251 0 228 l 0 256 l 5 256 q 48 235 22 241 q 117 294 100 235 q 197 496 150 433 l 182 496 l 187 507 l 182 518 q 251 539 244 539 q 310 492 288 513 q 294 470 302 470 l 288 470 l 251 475 l 251 433 q 304 395 251 395 q 315 374 304 382 l 368 379 l 401 379 q 444 502 401 438 l 444 507 l 411 507 q 374 539 385 539 l 374 566 q 347 614 374 587 l 347 641 q 427 689 347 648 m 342 331 l 342 326 q 401 315 380 315 l 401 336 q 342 331 381 331 z "},"G":{"ha":681,"x_min":0,"x_max":635,"o":"m 47 601 l 55 601 l 116 560 l 116 567 l 130 560 l 164 560 q 178 587 164 587 q 232 498 191 587 q 294 410 286 410 q 423 382 385 382 l 451 382 q 581 485 525 382 l 594 492 l 614 492 l 614 465 q 587 376 601 400 q 594 369 594 376 q 567 321 576 369 q 587 294 577 321 l 581 294 q 635 198 581 279 q 628 184 635 184 q 621 178 621 184 q 635 116 635 133 l 635 109 l 621 116 q 594 47 621 94 l 539 47 q 526 68 526 47 q 532 89 532 81 l 519 82 q 485 116 519 91 q 465 82 480 82 l 437 82 q 403 96 403 82 q 410 116 410 109 q 362 96 385 96 l 348 96 l 334 102 q 294 55 334 95 q 260 0 294 35 q 191 14 208 7 l 212 55 l 205 55 l 171 47 q 123 68 123 57 q 157 102 123 77 l 157 136 q 116 184 142 136 l 123 184 q 96 218 110 216 l 102 232 q 96 253 96 245 q 109 294 109 275 l 109 328 q 75 341 97 328 l 75 328 l 55 328 q 0 389 0 361 q 34 444 2 401 l 34 465 l 20 465 q 55 539 31 539 l 47 574 l 47 601 z "},"H":{"ha":817,"x_min":0,"x_max":770,"o":"m 146 705 q 315 526 211 705 q 488 460 409 460 l 549 460 q 606 475 606 460 q 610 512 610 492 l 610 559 q 549 663 610 603 l 549 667 q 559 676 551 676 l 564 676 q 648 559 617 676 l 648 517 q 644 427 648 479 q 709 282 709 353 q 761 178 709 231 q 770 132 770 178 l 770 47 q 724 28 770 34 l 719 28 q 709 37 709 28 l 709 56 q 728 75 709 64 q 700 160 724 160 q 709 113 709 120 q 681 42 695 42 l 663 42 q 648 71 648 47 l 663 117 l 663 151 q 606 212 663 192 q 568 268 584 231 q 549 273 560 273 l 536 273 q 399 244 421 244 l 310 244 q 300 117 300 154 l 300 90 l 287 71 l 287 42 q 254 0 287 0 l 221 0 q 207 14 214 0 q 239 56 207 34 l 239 61 l 216 47 l 188 47 q 174 71 177 47 q 207 103 186 103 q 216 151 212 111 q 202 254 202 232 l 202 291 q 151 456 151 349 q 117 493 121 456 l 117 503 q 132 554 117 518 q 85 564 124 560 l 42 559 q 0 592 10 572 l 0 653 l 14 653 q 94 695 94 670 q 146 705 113 705 z "},"I":{"ha":1119,"x_min":0,"x_max":1100,"o":"m 932 951 q 1030 853 1030 932 q 1063 797 1030 808 q 1100 774 1077 797 q 1048 680 1069 682 q 1035 676 1035 680 l 1025 680 l 941 680 q 928 634 928 646 q 941 508 928 609 q 862 331 941 470 q 853 247 853 296 q 876 93 853 93 q 886 65 886 78 q 825 28 869 28 q 713 84 713 36 q 676 275 680 105 l 667 279 l 639 279 q 424 340 538 279 l 420 340 q 387 284 404 336 q 252 140 319 153 q 229 93 229 115 q 252 47 229 78 l 252 42 q 196 33 219 33 l 177 33 q 172 28 172 33 l 163 33 l 135 33 q 89 0 135 0 l 37 0 q 0 75 0 36 l 0 140 q 47 205 0 184 q 140 494 140 349 l 168 550 q 163 676 163 636 q 214 774 168 721 q 340 825 277 825 q 490 680 444 825 l 490 648 q 391 685 399 648 q 279 746 345 734 q 238 685 238 728 l 238 662 q 275 625 242 625 q 639 676 639 651 q 811 895 709 676 q 932 951 861 951 z "},"J":{"ha":1318,"x_min":0,"x_max":1293,"o":"m 144 856 q 167 827 167 850 l 201 827 q 224 839 215 839 q 253 804 253 839 l 293 804 q 397 747 312 776 q 454 695 409 721 q 614 661 454 670 l 621 661 q 667 667 625 661 q 672 661 672 667 l 701 667 l 764 667 q 1023 534 1023 621 l 1074 465 l 1080 465 q 1223 517 1097 465 l 1264 523 q 1287 517 1274 517 l 1281 505 l 1293 500 q 1281 454 1293 489 l 1281 437 q 1195 368 1232 406 q 1190 374 1195 374 q 1183 356 1190 368 l 1190 356 q 1206 362 1200 362 l 1212 362 l 1212 356 q 1160 345 1175 345 l 1160 339 l 1172 339 l 1172 333 l 1137 321 l 1137 316 l 1149 316 l 1149 310 l 1109 304 l 1097 304 l 1097 298 q 1103 293 1097 293 q 1097 276 1097 282 q 1092 281 1092 276 q 1063 276 1082 276 l 1069 264 l 1057 264 q 1040 270 1046 270 l 1051 253 l 1051 247 q 1034 258 1034 253 q 971 235 972 247 q 954 149 964 149 l 960 138 l 960 132 q 896 17 911 132 l 844 0 q 798 23 798 9 l 798 28 q 856 52 798 42 l 856 81 q 827 149 856 149 q 804 167 804 149 l 798 167 l 798 155 q 753 195 777 159 q 730 230 737 195 q 690 304 712 304 q 661 281 663 294 l 649 288 l 644 288 l 614 270 q 592 276 605 276 l 563 258 l 563 270 l 546 270 q 540 264 540 270 l 528 270 q 454 235 454 243 q 431 207 454 222 q 397 126 414 126 q 368 92 368 107 l 368 81 q 356 98 356 81 l 351 98 q 333 63 351 84 l 321 69 l 264 63 q 241 81 241 72 l 241 86 q 288 103 241 98 q 298 138 298 122 l 298 167 q 241 264 298 252 q 230 298 230 273 l 218 293 q 207 316 218 316 l 195 310 q 167 345 184 310 q 172 351 172 345 l 167 351 q 144 333 167 342 q 98 391 132 334 q 52 431 85 395 l 58 454 q 52 500 52 495 q 86 592 52 509 q 81 609 81 603 q 58 603 68 609 q 0 637 0 629 l 0 644 q 98 776 98 735 q 121 816 111 776 q 138 827 138 816 q 121 839 138 839 l 121 850 q 144 856 123 850 z "},"K":{"ha":681,"x_min":0,"x_max":677,"o":"m 199 966 q 344 880 258 966 q 401 800 401 828 q 333 728 401 766 q 319 818 319 728 l 315 818 q 304 742 315 780 q 434 644 366 688 q 576 449 568 501 q 633 304 627 372 q 619 260 619 269 q 659 199 619 243 q 677 170 677 190 q 543 101 677 133 q 511 87 543 92 q 471 127 471 87 l 471 138 q 517 167 509 167 l 517 170 q 409 189 498 181 l 362 206 l 362 199 q 347 119 362 177 q 308 36 347 42 l 304 36 l 293 43 q 275 33 293 37 q 224 51 240 40 l 221 51 l 221 58 q 257 116 224 87 q 271 159 271 140 l 271 163 q 250 181 250 163 l 275 254 q 195 330 240 280 q 184 243 195 309 l 189 235 q 178 184 178 201 l 181 152 q 138 98 168 116 l 90 98 q 58 112 58 104 q 105 181 58 149 q 112 203 112 193 q 109 257 112 235 q 112 326 112 292 q 94 471 98 385 q 58 565 58 521 q 98 717 58 608 q 101 749 98 730 q 90 785 90 768 l 87 785 q 68 731 79 731 l 65 731 q 18 782 65 762 q 0 825 0 804 q 98 923 26 882 q 199 966 171 966 z "},"L":{"ha":1034,"x_min":0,"x_max":1009,"o":"m 783 951 l 791 951 q 814 897 809 951 l 818 897 q 840 942 826 897 l 849 942 l 854 911 l 854 884 q 920 840 906 884 l 947 840 q 1009 817 1009 837 q 924 724 1009 751 q 876 746 919 724 q 840 537 840 746 q 783 391 818 449 q 751 115 768 360 l 747 115 q 791 66 747 108 q 751 35 779 35 q 698 159 698 35 l 698 337 q 609 377 698 377 l 431 413 l 409 413 q 382 404 397 413 q 342 413 353 413 l 334 413 q 280 328 328 413 q 165 239 231 274 q 98 146 98 184 q 94 93 94 132 q 120 75 120 81 l 120 71 l 111 57 q 58 75 58 62 l 58 142 q 49 151 58 151 l 49 146 q 45 71 49 123 q 75 44 64 63 l 75 26 l 54 22 l 26 22 q 0 39 5 22 q 14 137 14 73 l 14 204 q 146 351 146 300 q 125 462 125 440 q 275 595 125 538 q 583 617 304 603 q 711 697 711 682 q 774 826 751 826 l 774 853 q 783 951 774 913 z "},"M":{"ha":1296,"x_min":0,"x_max":1276,"o":"m 503 966 q 648 860 580 966 q 705 677 682 860 q 918 589 824 589 l 1082 589 q 1276 357 1254 589 l 1276 338 q 1073 155 1276 187 l 1005 164 q 734 116 752 123 l 725 68 q 164 0 390 68 q 97 39 97 6 l 68 39 q 0 77 16 39 q 174 164 0 110 q 319 261 319 244 q 329 290 329 279 q 309 425 309 418 q 338 522 309 445 l 329 580 l 329 628 q 271 667 299 628 l 271 677 l 290 705 l 241 764 l 241 802 q 377 889 377 852 l 368 889 q 503 966 368 941 z "},"N":{"ha":880,"x_min":57,"x_max":861,"o":"m 713 795 l 720 795 q 732 775 720 775 q 766 789 732 789 l 760 728 q 821 640 768 728 q 861 600 830 640 l 861 593 q 746 559 861 572 q 672 309 699 334 q 597 201 597 277 l 597 180 q 631 39 597 65 l 631 12 l 564 12 q 510 214 510 38 q 395 282 510 256 q 334 302 395 297 l 307 302 q 212 214 275 302 q 125 93 125 153 l 125 73 q 152 18 152 44 l 138 12 l 91 12 q 57 133 68 12 q 98 316 98 214 q 132 444 98 340 l 132 552 q 212 681 132 631 l 239 674 q 314 681 256 681 q 381 647 314 667 q 429 552 381 597 q 354 525 393 525 q 246 586 275 586 q 199 545 218 586 q 314 511 199 511 l 334 511 q 564 593 519 511 q 713 795 585 661 z "},"O":{"ha":1170,"x_min":0,"x_max":1125,"o":"m 193 946 q 216 937 216 945 q 211 923 211 928 l 234 923 l 243 918 q 262 937 243 937 q 275 928 262 928 l 298 932 q 303 928 298 928 l 294 909 q 391 794 342 909 q 441 680 414 794 q 464 620 449 680 q 500 606 487 606 l 505 606 q 473 625 505 618 q 547 712 493 684 l 625 734 q 749 671 700 734 q 776 620 749 661 l 776 611 q 739 560 776 600 q 873 409 834 470 q 951 312 932 357 q 1019 230 981 302 q 1107 124 1084 182 l 1107 119 l 1097 119 l 1088 124 l 1088 119 q 1125 87 1125 93 l 1125 83 l 1084 87 l 1079 78 q 1065 83 1074 78 q 1024 78 1040 78 l 1024 73 q 1029 60 1029 64 l 996 60 l 974 64 l 974 55 q 895 69 952 55 q 909 60 895 60 l 909 46 l 905 46 q 868 50 886 46 q 836 46 850 46 l 817 55 l 822 46 l 817 37 q 730 64 772 42 l 730 60 q 734 37 734 54 l 698 37 q 693 28 698 28 q 648 41 687 28 l 648 37 l 656 23 l 656 14 l 625 14 q 560 32 608 14 l 570 18 l 570 9 l 565 9 l 514 32 l 514 28 q 524 5 524 13 l 500 5 q 450 14 468 5 l 450 9 l 454 0 l 446 0 q 381 18 425 0 q 372 9 381 9 l 363 9 l 358 28 q 308 5 336 5 q 290 41 308 30 q 252 28 267 28 l 239 28 q 225 46 227 28 q 179 32 201 32 l 174 32 q 156 55 156 41 l 133 50 l 129 50 q 124 60 129 60 l 92 50 q 87 73 87 58 q 46 64 58 64 q 37 87 37 64 l 5 83 l 0 92 q 37 133 37 125 l 37 138 q 18 142 26 138 q 64 257 49 187 l 60 257 q 41 252 52 252 q 64 376 64 346 l 64 446 l 69 469 l 55 469 l 55 473 q 96 606 55 534 q 83 611 87 611 q 133 698 133 686 l 133 707 q 92 730 106 707 l 92 758 q 101 785 92 770 q 96 799 96 794 q 133 817 123 817 l 133 850 q 151 900 133 876 q 129 909 129 900 q 151 941 147 941 l 156 941 q 170 918 167 941 l 174 918 q 193 946 174 937 m 532 611 l 532 606 q 574 597 570 597 l 602 602 l 602 611 l 588 611 q 547 615 571 611 q 532 611 538 611 z "},"P":{"ha":549,"x_min":0,"x_max":505,"o":"m 347 477 l 351 477 l 347 469 l 347 450 l 360 459 l 365 459 l 360 450 l 360 446 q 383 437 383 446 l 401 437 l 410 441 l 410 437 l 406 428 l 414 423 l 414 433 l 419 433 l 428 428 q 437 437 429 437 l 437 433 l 428 410 l 437 410 q 450 414 446 414 l 446 406 q 459 410 454 410 l 464 410 l 464 406 q 450 396 450 406 q 455 392 455 396 l 464 396 l 473 396 l 464 383 q 486 374 464 374 l 486 370 l 473 370 q 486 356 473 356 l 486 351 l 473 351 l 482 338 l 482 333 l 473 320 q 496 288 496 320 l 491 279 l 505 248 l 500 239 q 505 220 505 231 q 459 176 505 213 l 459 180 l 464 189 q 428 153 428 168 l 423 153 l 423 162 q 414 144 414 162 l 410 144 l 410 157 l 392 144 q 401 117 401 130 l 401 108 l 392 113 l 392 108 l 406 90 q 396 81 396 90 l 387 85 l 387 81 l 392 63 q 383 27 383 47 l 374 31 l 370 0 q 293 31 328 31 q 149 9 165 9 q 0 117 41 9 l 5 117 q 9 121 9 117 q 5 135 5 130 q 41 171 9 135 q 90 216 67 186 q 104 220 99 220 l 99 230 q 121 248 113 230 q 99 270 110 249 l 94 270 l 94 275 l 99 283 q 90 293 90 283 q 121 347 98 293 l 117 347 q 99 320 106 320 l 99 324 q 157 401 102 344 q 126 374 150 401 l 126 378 q 198 428 126 411 l 198 433 l 184 433 l 184 437 q 216 441 203 441 l 203 459 l 203 464 l 239 446 l 243 446 q 283 469 243 469 l 293 464 l 297 464 l 297 469 l 288 469 l 288 473 l 302 473 l 302 469 l 311 473 l 315 473 l 315 464 q 347 477 327 464 m 396 81 l 401 81 l 401 72 l 396 72 l 396 81 z "},"Q":{"ha":870,"x_min":0,"x_max":785,"o":"m 616 928 q 688 899 677 899 l 739 903 l 768 899 q 781 903 776 903 l 785 882 l 785 840 q 734 785 766 810 q 684 760 734 770 q 679 734 684 741 q 688 692 688 698 l 667 688 l 667 663 q 654 658 662 663 q 684 587 654 644 l 679 578 q 701 481 701 509 q 667 156 667 349 l 663 156 q 667 152 663 152 l 663 122 l 663 110 q 692 42 663 98 l 692 38 q 646 13 675 13 q 637 21 646 21 l 629 21 l 620 17 q 608 63 612 26 q 604 68 604 63 q 608 106 604 83 l 599 131 l 608 173 q 599 198 599 186 l 604 207 q 595 241 595 222 l 595 279 l 587 279 q 570 266 570 270 q 540 165 558 165 l 540 122 q 582 25 540 110 q 557 0 582 0 l 540 0 q 536 4 536 0 l 528 0 q 481 51 481 24 q 456 42 473 51 q 426 51 439 51 l 418 46 l 393 51 l 388 51 q 308 38 313 38 q 253 63 253 54 q 249 76 253 68 l 232 68 q 219 80 232 73 q 181 63 193 63 q 0 127 39 63 q 17 131 9 127 q 118 106 88 106 l 135 106 q 245 143 180 106 q 241 207 241 186 l 241 245 q 291 380 266 269 q 393 549 317 435 q 435 663 419 567 q 468 692 458 692 q 464 717 468 695 l 477 810 q 456 789 474 810 q 443 802 450 789 l 443 806 q 523 907 482 907 q 616 928 523 922 z "},"R":{"ha":870,"x_min":0,"x_max":857,"o":"m 307 569 q 416 422 363 569 l 473 422 q 537 416 509 416 q 665 530 605 524 l 684 492 q 627 300 663 300 q 671 218 663 218 l 703 224 q 761 173 761 224 l 857 173 l 857 153 l 767 153 q 703 134 703 140 q 640 153 653 153 l 608 153 q 505 32 536 153 q 473 6 473 11 l 460 13 q 422 0 439 0 q 339 83 339 12 q 307 147 339 130 l 198 147 q 109 121 171 147 q 51 153 73 132 l 0 153 l 0 173 l 45 173 q 51 166 51 173 q 121 211 113 211 q 262 179 243 197 q 288 275 288 255 l 288 358 l 275 377 l 275 384 q 288 537 288 528 l 288 556 q 307 569 288 569 z "},"S":{"ha":1090,"x_min":0,"x_max":1085,"o":"m 118 960 l 125 960 l 125 939 q 98 842 125 907 q 209 654 134 726 q 299 570 254 570 q 361 577 324 570 l 688 549 q 904 647 728 549 l 939 647 q 1043 528 996 647 q 1085 515 1055 528 q 1036 445 1055 445 q 960 452 989 452 l 945 452 q 932 404 932 408 l 918 404 q 897 445 918 439 q 709 250 749 261 q 695 174 695 223 l 695 111 q 779 0 695 69 l 751 0 q 640 125 651 0 q 626 243 626 218 l 626 250 l 612 250 q 549 167 612 234 q 500 83 542 140 q 515 28 515 39 l 508 28 q 438 77 450 28 q 549 306 459 143 q 382 355 404 355 q 271 209 348 250 q 167 146 167 155 l 167 125 q 201 21 167 100 l 195 21 q 118 132 118 41 l 118 195 q 209 285 118 203 l 209 292 l 201 292 q 111 237 201 281 l 49 167 l 49 160 q 62 77 49 125 q 0 111 0 77 l 7 111 l 0 125 l 0 188 q 83 285 0 228 q 174 466 134 335 q 209 528 188 528 q 62 814 94 735 q 56 834 62 821 q 111 939 56 873 q 118 960 118 952 z "},"T":{"ha":916,"x_min":0,"x_max":912,"o":"m 169 846 q 213 798 213 832 l 213 754 q 161 673 213 682 l 157 673 q 109 746 109 685 q 169 846 123 846 m 305 826 q 350 758 350 812 q 294 654 350 690 l 286 654 q 241 713 248 654 l 241 726 q 302 826 241 795 l 305 826 m 44 730 q 92 654 75 730 q 44 573 92 582 l 36 573 q 0 650 14 573 q 44 730 0 706 m 378 654 l 390 654 q 410 621 410 643 l 410 609 q 326 521 390 521 q 298 557 298 535 q 378 654 316 654 m 201 650 q 261 553 240 650 q 321 473 268 550 l 321 460 q 273 408 315 408 q 189 436 264 408 q 113 429 157 436 q 36 492 36 440 q 149 617 47 545 q 201 650 168 650 m 643 521 q 695 425 689 521 q 643 344 695 366 q 591 420 591 369 l 591 444 q 643 521 603 521 m 768 505 q 828 404 828 505 q 768 328 828 353 q 724 392 724 342 l 724 408 q 768 505 724 481 m 538 376 q 599 288 599 347 l 603 288 l 599 279 l 603 264 q 571 227 603 245 q 498 324 524 227 q 538 376 506 376 m 876 356 q 912 296 912 339 q 868 203 912 243 l 856 203 q 820 252 820 203 l 820 279 q 876 356 820 332 m 703 320 q 772 252 748 320 q 840 123 840 184 q 776 79 821 79 q 667 111 685 111 q 603 103 654 111 q 555 151 555 113 l 555 163 q 639 248 555 190 q 703 320 671 320 z "},"U":{"ha":766,"x_min":0,"x_max":740,"o":"m 610 705 l 616 705 l 616 687 l 640 699 l 640 693 l 628 675 q 669 593 644 675 q 675 587 675 593 l 669 587 l 687 481 l 681 481 l 687 470 l 687 464 l 681 422 l 663 422 l 658 452 l 652 452 q 634 429 652 429 q 693 223 693 325 l 693 217 q 669 212 669 217 q 734 112 694 145 q 740 88 740 101 q 675 64 690 64 l 658 64 l 658 77 q 681 94 681 77 q 605 194 668 136 q 587 146 587 164 l 587 135 q 652 71 652 119 l 652 18 q 634 0 652 9 l 610 0 l 610 12 q 628 29 610 20 l 623 41 l 623 77 l 593 82 l 581 82 q 558 12 558 34 l 517 12 q 534 29 517 29 l 534 35 l 446 35 l 446 47 q 499 77 446 53 l 499 100 q 446 164 487 100 q 411 182 411 164 q 323 164 355 164 l 282 176 l 282 170 q 252 12 282 12 l 199 12 q 241 41 217 41 l 241 77 q 170 205 241 146 l 117 305 l 106 311 q 64 264 64 288 l 53 264 q 47 282 53 271 q 53 305 53 292 l 18 305 q 0 323 9 305 q 64 411 50 374 l 77 411 l 77 417 q 64 464 77 422 l 64 470 l 77 464 l 82 464 l 82 475 q 223 376 141 411 l 229 376 q 440 446 399 411 q 505 493 505 483 q 576 558 532 558 l 576 570 q 528 628 551 570 l 511 628 l 511 658 l 593 687 l 610 687 l 610 705 m 417 399 q 446 382 446 397 q 353 358 437 382 l 353 347 q 517 294 471 329 q 546 429 533 331 q 541 446 541 440 q 546 464 546 458 q 541 470 541 464 q 417 405 471 421 l 417 399 m 247 364 l 247 358 l 276 353 l 282 353 l 405 382 l 405 393 q 364 399 387 393 q 358 393 364 393 l 358 399 q 247 364 304 376 z "},"V":{"ha":694,"x_min":0,"x_max":675,"o":"m 382 954 l 401 954 q 444 892 444 937 q 436 853 436 868 q 448 842 436 842 l 448 838 q 429 810 429 827 l 425 791 q 433 772 433 779 l 471 772 q 506 776 485 772 q 556 760 550 760 l 556 757 l 552 749 l 556 749 q 595 772 556 755 q 629 722 612 772 q 625 684 625 688 q 629 671 629 676 q 625 652 625 665 q 629 648 629 652 l 625 648 l 629 641 l 629 587 q 575 579 620 587 q 633 463 585 570 q 664 444 664 454 q 656 436 656 443 q 675 425 675 433 l 675 420 q 575 367 614 367 q 556 104 575 191 q 583 39 583 44 l 583 35 q 536 19 583 26 q 513 58 522 19 l 509 58 l 521 162 q 513 224 513 203 l 517 278 l 517 290 l 513 290 q 502 93 513 270 q 509 16 509 35 q 467 7 467 12 q 448 31 448 10 l 448 46 l 463 123 q 444 220 448 171 l 452 297 q 448 347 448 323 l 425 347 q 390 359 418 347 q 394 386 394 376 l 390 386 l 390 397 q 417 463 417 427 q 409 521 409 509 q 429 556 429 551 l 425 556 q 401 533 417 533 q 344 564 344 553 l 324 637 q 363 718 324 684 q 367 734 367 725 l 367 737 q 313 807 314 779 q 294 830 294 807 l 294 846 q 328 907 294 899 q 363 935 363 921 q 382 954 368 935 m 386 919 l 386 907 q 413 892 395 907 l 413 896 q 386 919 393 919 m 436 595 q 429 564 436 575 l 429 559 l 433 559 l 440 583 l 440 595 l 436 595 m 513 336 l 513 313 q 517 309 517 313 q 513 305 513 309 l 517 305 q 521 309 517 309 q 517 336 517 314 l 513 336 m 278 305 q 305 251 291 288 q 286 232 302 251 l 278 235 q 262 228 269 228 l 262 193 q 258 155 262 175 q 262 123 262 140 q 258 119 258 123 l 262 119 q 251 39 255 102 q 267 23 267 39 l 262 23 q 247 19 256 19 l 235 19 q 228 0 235 0 l 197 0 q 189 7 189 0 l 182 4 l 178 4 l 170 39 l 162 35 q 151 39 155 39 q 146 35 151 35 l 146 43 l 139 39 l 135 54 q 119 50 128 50 l 132 31 q 100 23 117 23 l 93 23 q 77 54 93 28 l 69 50 q 66 54 69 54 q 54 43 66 49 l 46 46 q 35 31 46 31 q 43 0 43 17 l 19 0 q 4 58 7 0 l 0 58 q 19 132 12 79 q 39 162 24 132 q 31 174 35 174 l 35 182 l 35 185 q 46 270 35 235 l 54 270 l 54 267 q 73 178 54 178 l 96 178 q 100 182 100 178 q 104 178 104 182 q 174 208 174 187 q 143 247 174 233 l 146 255 l 155 251 l 162 251 l 151 267 l 155 267 l 174 255 q 216 286 216 266 l 224 286 q 228 278 224 278 q 278 305 269 305 z "},"W":{"ha":715,"x_min":0,"x_max":690,"o":"m 224 758 q 365 643 292 758 q 382 600 365 627 q 426 520 382 555 q 455 473 449 473 q 466 477 458 473 q 559 458 486 477 l 559 462 q 520 513 520 488 l 520 542 q 574 595 535 595 q 639 516 629 595 q 581 462 639 467 l 581 437 l 600 415 l 600 303 q 643 184 600 236 q 690 123 690 184 q 606 40 673 40 q 595 43 600 43 l 595 51 q 600 65 595 59 q 578 119 578 98 l 578 130 q 603 180 578 157 q 484 350 501 349 l 458 354 q 376 286 413 286 q 300 264 359 275 q 292 224 297 256 q 325 184 292 195 q 339 126 339 158 l 339 98 q 300 43 339 59 q 264 40 281 40 l 260 40 q 256 47 260 47 l 260 54 l 260 58 q 242 134 242 81 q 267 191 242 167 q 227 264 261 264 q 126 343 159 264 l 123 379 q 177 505 123 425 q 180 534 180 526 l 155 534 q 119 570 119 543 q 155 600 129 573 l 155 603 q 159 650 155 626 q 152 682 155 682 q 224 758 152 758 m 0 7 l 7 7 l 7 0 q 0 7 0 0 z "},"X":{"ha":892,"x_min":0,"x_max":869,"o":"m 564 957 l 578 957 l 578 952 l 564 952 l 564 957 m 559 952 l 564 952 l 564 947 q 452 845 525 947 l 442 845 l 467 874 l 467 879 l 461 903 q 559 952 541 952 m 602 947 l 617 947 l 617 943 q 549 850 617 871 l 544 850 q 500 879 533 850 l 496 879 l 496 884 q 602 947 555 947 m 636 947 l 641 947 q 758 869 758 932 q 641 753 758 835 q 602 777 606 753 q 636 947 602 812 m 447 889 l 456 889 l 456 884 q 447 860 447 868 l 437 860 l 437 879 q 447 889 439 889 m 486 869 l 496 869 q 486 831 486 835 l 486 826 l 510 821 q 588 855 519 821 l 593 855 l 588 797 l 588 758 q 607 743 607 755 q 549 709 564 709 q 539 719 549 719 l 500 719 l 442 694 q 374 728 398 707 q 393 777 393 763 l 393 782 q 379 791 393 791 q 486 860 379 802 l 486 869 m 432 845 l 442 845 l 442 840 l 432 840 l 432 845 m 500 845 l 519 845 l 519 840 l 500 840 l 500 845 m 763 831 q 840 675 840 749 q 869 573 869 618 q 768 427 840 473 q 665 384 766 420 q 588 379 658 384 q 622 437 622 414 q 554 525 622 449 q 525 583 525 565 l 525 602 q 559 656 559 635 l 544 675 l 544 685 q 641 739 553 685 q 763 831 666 739 m 374 791 l 384 777 q 359 763 384 770 l 364 739 l 359 739 q 345 753 353 739 l 345 768 q 374 791 357 791 m 306 777 l 330 777 l 326 768 l 326 763 q 379 675 326 711 q 427 680 385 675 q 500 670 490 670 l 525 675 l 539 656 l 539 651 q 456 525 502 580 q 437 471 437 499 q 442 422 442 429 q 243 597 303 474 q 238 641 238 624 q 272 753 238 672 q 306 777 272 777 m 252 768 l 252 748 q 223 636 223 681 q 287 510 223 585 q 209 403 287 489 q 92 218 129 236 q 68 126 68 165 q 73 121 73 126 q 24 97 55 121 l 24 102 q 78 292 24 218 q 126 534 107 380 q 117 573 121 573 q 175 709 142 709 q 252 768 225 768 m 369 714 q 403 699 393 699 l 403 694 l 384 694 q 369 709 377 694 l 369 714 m 515 709 l 519 709 q 490 694 515 694 l 481 694 l 481 705 l 515 709 m 510 568 q 583 467 516 568 q 607 437 607 452 q 564 379 607 406 q 573 311 573 326 l 568 267 q 597 107 593 165 q 612 73 612 96 l 612 68 l 573 68 l 554 54 q 510 209 528 84 q 456 403 490 252 l 456 408 q 461 413 456 413 l 456 422 l 456 476 q 510 568 456 525 m 301 496 q 379 437 368 456 l 350 427 q 292 471 337 452 l 292 481 l 301 496 m 97 486 l 102 486 l 102 476 l 97 476 l 97 486 m 92 471 l 97 471 l 97 467 q 24 316 86 316 q 0 306 24 311 l 0 311 q 87 456 0 332 q 92 471 92 466 m 287 456 l 296 456 q 364 413 347 413 l 369 413 l 389 427 l 393 427 l 408 418 q 345 296 408 361 q 335 272 345 272 q 359 175 342 209 q 311 165 339 165 q 281 311 306 208 q 321 384 293 311 q 287 456 316 410 m 802 442 l 806 442 l 806 422 q 782 277 782 296 l 782 248 q 816 146 782 194 l 816 136 l 772 136 l 758 126 q 734 194 758 134 q 743 214 737 214 q 728 393 728 332 q 802 442 802 420 m 369 160 q 389 126 389 143 q 379 117 389 117 l 335 117 q 311 141 329 117 q 369 160 311 160 m 787 126 q 806 83 798 126 l 806 78 l 802 78 q 763 97 763 87 l 763 121 l 787 126 m 806 126 l 816 126 q 855 87 855 121 q 826 78 839 78 l 821 78 l 806 126 m 73 112 q 97 92 95 102 l 97 73 q 83 58 97 69 q 34 68 74 63 l 34 73 q 73 112 39 112 m 578 54 q 597 24 597 49 l 597 0 l 578 0 q 559 34 559 8 l 559 39 q 578 54 559 46 m 602 54 l 631 54 q 656 29 638 54 l 656 9 l 622 5 l 612 5 q 602 54 612 14 z "},"Y":{"ha":1012,"x_min":0,"x_max":982,"o":"m 816 960 q 937 901 937 960 l 937 879 l 977 865 l 977 821 l 982 793 q 955 722 972 722 l 915 713 l 884 722 q 870 664 874 713 l 879 606 l 870 583 q 874 543 874 559 q 803 148 838 412 q 857 81 827 81 q 870 31 870 62 q 834 22 854 22 l 793 22 q 726 309 745 44 l 718 314 q 650 283 650 308 q 646 233 646 252 l 646 170 q 682 54 646 54 q 709 9 709 35 l 709 0 l 596 0 q 556 305 575 102 q 444 345 556 321 q 372 368 406 368 q 296 229 348 300 q 273 117 273 196 l 273 98 q 318 67 273 94 q 287 41 318 41 l 251 41 q 220 94 220 41 l 220 125 l 224 153 q 220 184 220 170 q 251 278 220 211 q 256 328 256 309 l 256 363 q 242 386 242 378 q 179 305 187 386 l 179 296 q 193 197 193 231 q 148 287 172 197 l 144 287 q 67 63 67 149 q 90 22 90 52 q 31 9 58 9 l 0 14 l 0 22 q 54 269 27 215 q 76 399 66 269 q 108 587 108 492 q 206 673 166 673 q 296 695 237 695 l 435 695 l 462 690 q 628 767 544 690 q 709 910 684 873 q 816 960 749 960 z "},"Z":{"ha":696,"x_min":0,"x_max":679,"o":"m 434 954 q 425 928 425 939 q 455 751 425 916 l 455 747 q 447 674 455 743 q 563 370 488 674 q 657 254 602 273 q 679 232 657 251 q 507 142 591 232 q 399 4 438 4 l 378 0 q 258 52 328 0 l 245 68 l 245 107 q 288 288 245 132 l 288 309 q 245 447 288 420 q 232 460 245 453 l 202 460 q 163 442 179 442 q 99 447 153 442 q 77 438 85 438 q 13 503 21 473 l 17 528 l 17 532 q 0 593 0 552 l 0 606 q 120 640 0 617 q 180 700 180 673 q 275 730 196 720 q 318 846 286 730 q 361 906 340 897 l 365 906 l 361 885 l 365 863 l 374 863 q 434 954 374 927 z "},"[":{"ha":1299,"x_min":0,"x_max":1277,"o":"m 191 850 q 241 743 191 823 q 441 581 253 680 q 511 585 500 585 q 752 557 567 572 q 938 460 910 513 q 1031 334 962 439 q 1133 302 1062 313 l 1128 292 q 1179 279 1164 279 l 1198 279 q 1277 246 1198 266 l 1277 241 q 1175 209 1246 241 l 1161 209 l 1161 204 l 1189 199 l 1189 195 l 1175 195 q 1114 199 1154 195 l 1086 195 l 1031 209 l 1031 204 l 1078 79 q 994 0 1053 0 l 975 0 q 961 5 966 5 l 961 23 l 1013 65 l 1017 75 l 1017 83 q 970 167 1004 167 q 878 186 899 167 l 878 163 q 896 93 878 153 q 822 23 871 23 l 785 23 q 775 33 775 23 q 836 83 775 60 q 845 111 845 99 q 762 195 845 154 q 692 279 726 195 q 683 292 692 292 l 683 283 l 669 292 q 664 279 664 283 l 659 279 l 650 283 l 641 269 l 631 274 l 622 269 q 618 274 622 274 q 608 264 618 264 l 608 274 l 599 274 q 590 260 599 260 q 585 264 590 264 l 585 260 l 576 264 q 553 256 561 256 l 553 260 l 543 256 l 534 256 q 530 260 530 256 l 520 256 l 506 264 l 501 264 l 501 260 q 478 116 478 153 l 478 102 q 432 51 447 51 q 390 46 407 46 l 380 46 q 372 56 372 46 q 432 121 372 64 l 432 139 q 399 246 432 212 q 372 111 372 144 l 372 102 q 376 98 372 98 q 292 33 345 33 l 264 33 q 256 42 256 33 q 316 98 256 52 q 325 149 325 122 q 292 334 325 334 q 241 404 241 366 q 139 590 220 404 q 135 594 135 590 l 79 590 l 56 590 q 0 636 29 590 l 0 641 q 83 701 0 651 q 130 752 83 730 q 121 836 121 826 l 130 840 q 163 789 163 801 l 167 789 q 191 850 178 850 z "},"\\":{"ha":709,"x_min":0,"x_max":678,"o":"m 506 963 q 559 920 559 951 l 554 920 q 565 877 565 892 q 549 834 549 850 l 549 829 q 646 780 551 819 q 673 608 665 755 q 678 511 673 576 q 640 446 678 501 q 651 339 640 437 l 646 339 l 651 328 q 646 242 646 273 q 613 194 613 242 q 592 156 597 156 l 613 48 q 592 16 602 16 l 565 16 q 543 54 556 16 q 554 102 554 73 q 538 145 538 129 q 559 167 543 167 l 559 183 q 549 215 559 197 q 554 237 554 224 l 527 231 l 517 231 l 517 242 l 506 242 q 511 183 506 212 q 506 86 506 132 q 527 16 527 49 q 522 0 522 5 l 495 0 l 468 5 l 468 48 q 473 54 468 54 l 468 64 l 473 75 q 446 199 446 170 l 446 220 q 420 248 436 220 q 404 361 412 248 l 350 317 q 290 345 290 326 q 312 382 298 382 l 296 409 l 296 457 q 317 468 317 457 l 328 463 l 334 463 q 328 490 334 481 q 420 796 361 796 q 473 823 473 815 l 473 844 l 457 871 q 506 963 457 963 m 398 570 q 376 495 398 553 l 376 441 q 371 420 376 429 q 398 382 373 404 l 398 376 l 404 376 l 404 441 q 398 446 404 446 l 404 457 l 404 473 q 398 479 404 479 l 404 490 l 404 506 q 398 527 404 518 q 404 549 404 536 l 404 570 l 398 570 m 22 312 l 33 312 q 86 242 62 291 q 145 172 145 216 l 123 54 l 129 16 l 113 5 q 97 22 109 5 l 102 48 l 102 102 l 92 102 q 86 97 86 102 l 75 102 l 64 102 l 59 70 q 81 0 70 54 l 59 0 l 48 5 l 54 16 l 54 38 q 33 48 33 38 l 33 119 l 27 172 l 22 172 q 11 151 22 151 q 0 161 0 151 l 59 231 l 59 237 q 22 312 59 262 z "},"]":{"ha":854,"x_min":0,"x_max":811,"o":"m 534 944 l 543 932 l 543 917 q 496 839 543 895 l 496 835 q 503 827 496 827 l 507 827 q 566 835 564 835 l 566 827 q 464 772 559 814 q 452 737 452 748 q 523 663 452 714 q 574 562 564 572 q 585 558 585 562 q 675 566 602 562 q 757 534 690 566 q 811 480 811 534 q 784 468 811 471 l 675 519 l 671 519 q 558 468 652 519 q 530 476 538 476 q 519 472 523 472 q 546 347 519 461 q 527 316 536 316 l 511 316 q 472 421 498 317 l 468 421 q 347 343 374 343 l 347 336 q 382 152 372 283 q 406 144 395 144 l 460 160 l 468 160 q 496 125 496 139 q 437 102 496 105 l 421 102 q 320 125 347 102 l 328 187 q 285 234 328 234 l 250 234 q 199 156 210 234 l 144 94 q 180 51 157 58 l 203 55 q 238 31 228 55 q 187 0 220 0 q 82 109 128 35 q 144 164 132 164 q 125 254 133 194 q 144 332 129 289 q 0 480 0 381 q 66 585 0 533 q 78 589 74 589 l 82 581 l 82 577 q 43 519 43 539 l 43 507 q 129 386 43 414 q 168 378 158 378 q 261 476 168 387 q 332 648 308 554 q 351 706 351 669 q 316 733 351 722 l 316 737 q 328 792 328 776 q 285 835 285 819 l 289 835 q 300 858 298 835 l 359 858 q 445 917 425 917 l 464 905 q 534 944 516 944 z "},"^":{"ha":791,"x_min":0,"x_max":783,"o":"m 45 787 q 91 766 64 787 q 98 777 91 777 q 105 769 99 769 q 115 783 110 783 q 119 772 119 777 l 122 772 l 140 787 l 140 769 q 161 777 151 777 l 175 777 q 154 766 175 769 l 154 762 l 161 762 l 161 755 q 133 738 142 755 l 136 738 q 157 748 140 748 l 161 741 l 154 727 q 157 713 157 721 q 147 706 147 713 q 175 731 167 713 l 182 727 q 227 745 208 745 l 248 745 q 255 738 255 744 q 248 710 248 725 l 248 703 l 255 706 q 276 685 269 704 q 318 602 318 642 q 304 598 312 598 q 321 521 321 545 l 321 517 l 315 517 l 315 524 l 311 524 q 304 448 311 473 l 304 441 q 357 437 348 437 q 385 444 379 444 l 423 433 q 454 444 446 444 l 462 444 l 486 437 q 514 496 507 467 l 521 493 q 566 524 549 524 q 594 462 586 524 q 602 437 602 462 l 602 412 q 626 339 616 397 q 633 325 633 339 l 629 325 l 619 332 l 615 332 l 615 329 q 633 279 633 296 l 629 279 l 623 283 l 623 279 q 671 168 636 256 q 713 115 713 140 l 689 136 l 685 136 l 685 133 q 727 49 727 62 q 724 35 724 43 q 783 28 743 35 l 783 21 q 748 14 751 14 q 699 18 743 14 q 657 10 675 10 q 654 24 654 16 q 598 14 610 14 q 591 21 598 21 l 556 10 q 549 18 549 10 q 556 24 556 18 l 553 24 q 500 14 521 14 l 496 14 l 496 7 l 493 7 q 412 14 416 14 l 420 0 l 416 0 q 370 14 403 0 l 370 3 q 300 21 336 3 l 297 14 q 300 0 300 8 l 297 0 q 262 18 284 0 q 255 0 255 18 q 224 35 224 15 q 210 3 216 35 q 196 0 202 3 q 172 10 194 10 l 172 31 q 140 18 151 18 l 136 18 l 136 24 q 147 49 147 34 q 102 21 109 21 q 87 31 102 30 q 77 28 81 28 q 66 45 66 39 q 42 31 47 31 q 28 35 36 35 l 35 56 l 18 52 l 14 52 q 35 157 35 138 l 18 154 l 18 157 q 35 248 35 226 l 35 266 l 31 300 l 28 300 l 21 269 l 18 269 l 14 290 q 31 409 18 353 q 28 437 28 412 l 24 437 q 18 402 24 428 l 10 402 l 10 472 l 24 545 l 24 549 l 21 549 q 14 538 21 538 l 14 545 q 24 591 14 560 l 21 591 q 14 584 21 584 l 10 584 q 39 647 10 608 l 35 647 q 14 615 14 623 l 7 619 q 28 661 13 644 l 24 661 q 0 636 24 656 l 0 640 q 77 699 16 699 l 77 710 l 70 720 l 70 731 l 77 731 l 77 738 l 45 745 l 45 751 q 60 755 47 751 l 60 759 l 45 759 q 10 751 39 759 l 10 755 q 49 772 22 772 l 49 777 l 31 780 l 31 783 q 45 787 39 783 z "},"_":{"ha":694,"x_min":62,"x_max":715,"o":"m 562 957 q 610 895 610 936 q 549 755 549 783 q 545 728 545 749 q 580 628 560 628 q 628 527 628 570 q 575 426 628 497 q 562 303 566 374 q 571 250 571 273 l 571 245 q 610 268 587 245 q 659 259 621 268 q 654 254 659 254 l 659 245 q 654 241 659 241 l 659 233 q 602 193 628 193 l 602 189 q 615 171 608 171 l 628 171 l 650 189 l 659 189 q 715 171 711 171 l 715 167 l 707 167 l 715 154 q 667 96 715 146 l 659 96 q 505 123 612 114 q 439 189 460 189 q 342 140 410 140 q 241 224 278 140 l 237 224 q 145 171 237 189 q 62 220 62 179 l 71 224 l 75 224 q 123 202 106 202 l 145 202 q 220 320 220 202 q 299 505 235 425 q 413 742 413 622 q 356 834 390 834 l 338 856 l 338 861 l 342 861 l 365 856 l 321 895 l 325 895 q 395 878 382 878 l 413 878 q 474 913 456 913 l 479 913 q 496 909 488 913 q 553 957 506 909 l 562 957 m 488 904 l 488 900 l 496 900 l 496 904 l 488 904 m 488 347 q 461 329 488 338 q 492 294 492 305 l 496 294 l 496 338 q 488 347 496 347 z "},"`":{"ha":1138,"x_min":0,"x_max":1117,"o":"m 897 692 q 930 640 919 692 l 935 640 l 939 664 q 963 603 956 664 q 958 589 958 594 l 963 589 l 977 598 l 986 598 q 996 589 996 597 l 996 584 q 981 533 996 564 q 1010 524 1010 533 l 1010 514 q 977 472 996 494 q 1000 454 1000 472 q 972 425 989 425 l 972 416 q 986 402 986 416 q 949 374 977 374 l 949 369 l 954 360 q 902 346 943 352 q 892 327 902 327 q 879 332 888 327 l 850 327 l 850 323 q 884 210 884 276 l 888 210 q 926 224 911 224 q 1052 192 1029 192 q 1117 168 1117 192 l 1117 159 q 1000 117 1117 117 q 954 121 994 117 q 1047 56 954 100 l 1057 42 l 1057 23 q 1010 0 1057 9 q 897 42 945 5 l 888 42 q 804 23 832 23 l 776 23 q 664 112 712 23 l 654 117 l 584 117 q 458 94 513 117 l 454 94 l 444 98 l 444 89 l 439 89 l 407 98 l 407 94 l 411 84 q 402 75 402 83 q 374 94 397 75 l 374 75 l 369 75 q 351 98 351 84 q 294 52 323 52 q 70 0 154 52 l 56 0 q 33 37 33 13 q 131 112 33 79 l 131 117 l 121 117 q 52 103 63 108 q 9 126 9 115 l 9 136 q 117 201 9 188 q 163 196 141 196 q 150 229 150 214 q 163 285 150 251 l 159 285 q 154 281 159 281 q 150 285 154 285 q 163 327 163 323 q 159 341 159 336 l 182 360 q 173 383 173 375 q 178 388 178 383 l 168 383 l 159 383 q 145 402 159 402 l 145 393 l 140 393 q 121 420 131 393 l 117 420 l 117 411 l 112 411 q 75 467 101 416 l 42 472 l 33 472 q 28 481 33 481 q 84 524 50 524 l 84 528 q 0 580 11 528 q 14 631 3 631 q 98 608 83 608 q 215 627 179 627 q 252 622 248 622 q 290 650 271 650 q 420 589 420 603 l 420 584 l 397 584 q 430 542 410 564 l 416 533 l 397 533 l 374 538 q 351 514 374 524 q 360 472 360 484 l 355 472 q 341 477 346 477 l 341 472 q 346 458 341 467 q 341 444 341 449 q 346 430 346 435 q 341 425 341 430 q 481 369 399 369 l 486 369 q 692 397 522 369 l 706 397 q 804 374 753 397 q 902 612 902 443 q 897 692 897 656 z "},"a":{"ha":1643,"x_min":0,"x_max":1611,"o":"m 65 790 q 141 750 109 790 l 141 745 q 91 715 91 741 q 216 564 91 625 q 372 534 344 542 q 393 493 393 505 l 438 493 q 856 403 641 493 q 901 397 883 397 l 906 397 q 1137 453 963 418 q 1218 493 1147 464 q 1299 569 1275 557 l 1303 569 l 1303 564 l 1299 538 l 1324 553 l 1324 549 q 1299 493 1299 513 l 1299 488 q 1384 403 1303 469 q 1450 353 1428 353 l 1450 327 q 1369 297 1394 297 q 1278 312 1298 312 l 1268 312 q 1208 237 1208 312 l 1208 206 q 1369 161 1246 186 q 1530 71 1440 139 q 1611 40 1550 71 l 1611 35 q 1535 10 1611 24 q 1525 0 1535 0 l 1510 0 q 1459 35 1488 0 q 1278 75 1391 75 l 1253 75 q 1143 60 1236 75 l 1122 60 q 1107 116 1118 100 q 936 85 1025 96 l 931 85 q 750 146 868 85 q 640 222 685 179 q 594 237 603 237 q 468 166 548 237 q 413 151 434 151 l 397 151 q 337 196 355 151 q 312 252 337 252 l 282 257 q 166 161 231 240 q 116 136 134 136 l 111 136 l 106 156 q 161 206 106 200 q 237 337 210 265 q 282 362 248 337 l 317 342 l 317 353 l 312 378 q 378 458 378 423 l 378 463 l 368 463 q 212 438 272 438 l 191 438 q 20 553 50 438 q 0 705 5 615 q 65 790 13 790 z "},"b":{"ha":675,"x_min":0,"x_max":688,"o":"m 0 787 l 7 787 l 7 783 l 0 783 l 0 787 m 0 779 l 4 779 l 4 768 l 0 768 l 0 779 m 238 675 q 269 667 269 674 q 307 675 286 675 q 361 633 331 675 l 369 629 l 388 629 l 388 621 l 369 621 l 369 618 q 411 610 411 616 q 427 595 411 604 l 427 587 l 411 587 q 461 533 461 555 l 450 533 l 450 530 q 461 495 461 515 l 461 484 l 453 487 l 450 487 q 453 441 453 473 l 450 441 q 453 414 453 425 q 441 410 446 410 q 415 445 421 444 l 411 426 q 427 406 419 424 l 422 406 l 407 414 l 407 403 q 453 372 421 372 l 438 357 q 473 334 473 338 l 461 334 l 465 326 l 457 326 l 457 322 q 503 283 503 290 l 503 279 q 496 276 496 279 q 549 218 509 218 q 561 207 561 210 q 557 203 557 207 q 565 195 565 201 q 561 191 561 195 q 580 168 580 182 q 576 165 576 168 l 584 165 q 603 199 595 165 q 599 245 603 205 q 633 311 599 283 q 672 345 633 344 l 665 330 l 668 330 q 676 337 669 337 l 684 337 l 676 322 l 684 326 l 688 326 q 676 291 685 304 l 684 288 l 672 256 l 676 256 l 684 260 l 684 256 l 665 230 l 672 230 l 672 226 q 661 188 661 192 l 665 180 q 653 149 653 161 q 656 145 653 145 l 649 107 l 656 107 l 656 99 q 642 87 642 99 l 637 87 l 630 92 q 607 73 630 85 l 603 73 q 595 84 603 84 l 576 84 q 511 22 576 57 l 503 26 q 499 22 499 26 l 492 26 q 427 15 445 15 q 415 18 419 18 q 384 3 415 9 q 326 38 326 13 q 323 41 323 38 l 323 53 q 376 73 323 62 l 376 80 q 330 99 357 80 l 330 80 l 326 80 l 319 84 q 296 18 302 59 q 261 -1 290 18 l 238 3 q 211 -1 223 -1 q 180 38 180 21 q 238 103 226 66 q 242 122 238 122 l 231 161 l 227 161 l 227 157 q 231 142 231 150 l 231 138 l 227 138 q 215 142 219 142 l 215 138 q 219 122 219 131 l 219 119 q 192 73 210 119 q 138 45 192 64 q 85 68 104 57 l 77 84 q 131 122 77 98 q 157 230 145 145 q 165 237 165 230 l 165 241 l 161 241 q 138 233 149 233 l 173 276 l 173 279 l 165 279 q 157 264 157 279 l 154 264 l 154 288 l 146 283 q 142 322 146 321 l 150 341 q 131 349 131 341 q 169 391 152 349 q 165 395 165 391 l 157 391 l 154 391 l 154 395 l 165 410 l 142 410 l 142 414 l 173 445 l 173 452 l 154 449 l 146 460 l 146 503 l 154 514 q 131 541 146 514 l 131 549 q 138 572 131 559 l 134 572 q 173 602 134 585 q 203 656 173 642 q 238 675 233 675 m 446 456 l 446 445 l 450 445 l 450 456 l 446 456 z "},"c":{"ha":1485,"x_min":0,"x_max":1466,"o":"m 183 880 l 238 880 l 342 794 q 550 678 413 678 l 660 660 q 806 672 739 672 l 861 672 q 1050 623 913 672 q 1295 593 1118 623 l 1423 593 l 1466 599 l 1466 593 q 1314 550 1449 550 l 1308 550 q 1301 544 1301 550 q 1106 574 1133 574 q 1081 568 1095 568 q 1106 495 1106 517 q 1093 404 1093 422 q 1234 208 1093 271 l 1259 85 l 1271 55 q 1228 0 1252 0 l 1228 6 l 1216 0 q 1210 6 1210 0 l 1198 0 l 1179 0 q 1173 12 1179 12 q 1216 55 1173 22 l 1216 61 q 1014 262 1216 178 q 935 373 935 317 l 928 373 q 922 323 922 339 q 977 183 922 273 q 873 49 916 112 q 849 43 863 43 q 788 49 842 43 l 788 85 q 880 146 880 106 q 904 171 889 146 q 819 317 904 214 q 782 440 782 403 l 776 440 q 587 373 623 373 q 568 360 568 373 l 568 305 q 617 165 568 238 l 617 159 q 550 31 605 31 l 550 37 l 538 31 l 507 31 q 501 49 507 37 q 550 85 550 75 q 556 110 550 99 q 483 287 555 188 q 465 330 465 314 l 452 330 l 458 317 l 458 311 q 434 220 458 283 q 440 201 440 208 q 404 37 440 134 q 354 12 378 12 l 305 12 l 305 37 q 367 128 367 72 q 373 171 367 146 q 323 385 373 324 q 269 568 269 522 l 177 690 q 98 709 142 690 l 85 703 l 67 703 q 0 764 0 703 q 104 831 104 787 q 183 880 168 880 z "},"d":{"ha":939,"x_min":0,"x_max":908,"o":"m 236 954 q 307 904 307 936 l 307 900 l 294 908 l 294 904 l 298 895 l 294 895 l 286 900 l 282 850 q 286 838 286 842 q 265 808 272 838 l 265 804 l 261 804 q 228 812 258 804 l 224 792 l 224 775 q 294 688 224 749 l 294 675 q 282 647 294 667 q 332 559 310 647 q 423 514 379 521 q 526 477 423 486 l 564 477 q 638 489 591 477 q 667 477 649 489 l 667 481 q 663 485 663 481 l 667 485 l 680 477 l 680 481 q 675 485 675 481 l 688 485 q 663 469 688 475 q 659 465 663 465 q 614 473 649 465 q 535 465 581 465 l 522 465 q 427 481 496 465 l 427 473 l 410 473 q 340 530 378 486 l 315 539 l 315 518 q 319 514 315 514 q 290 489 319 489 q 273 460 273 489 q 311 365 311 385 q 539 427 355 427 q 688 473 620 427 q 709 485 688 484 q 763 564 709 493 l 759 572 q 796 647 759 601 q 804 593 796 620 l 812 593 q 817 622 812 606 q 812 643 812 629 l 821 643 q 854 581 840 582 q 908 535 854 553 l 908 526 q 887 481 893 481 l 875 481 q 817 493 821 493 q 796 427 800 453 q 792 423 792 427 l 792 402 q 796 344 792 379 q 734 104 734 241 l 734 66 q 771 37 734 62 l 771 33 q 763 25 771 25 l 750 25 q 709 45 718 25 l 709 83 q 688 91 699 83 q 696 191 696 117 q 659 249 696 249 q 481 290 615 249 l 473 290 q 410 212 438 290 q 377 174 408 212 q 444 66 426 88 l 439 58 q 481 50 481 58 q 423 16 450 17 q 390 33 406 33 l 381 33 l 381 29 l 394 12 l 394 8 l 386 8 l 365 25 l 353 25 l 353 33 l 340 25 l 323 25 q 298 62 298 25 l 298 91 l 294 91 l 290 71 l 290 50 q 315 12 290 31 l 315 0 l 278 0 q 261 16 271 0 l 261 45 q 265 112 261 70 q 261 129 261 119 q 298 170 261 140 q 278 203 290 203 l 282 212 q 249 315 262 254 q 224 344 227 344 q 149 232 149 243 q 116 62 116 86 q 145 16 116 28 l 149 16 l 149 12 q 141 4 149 4 l 104 4 q 71 37 71 8 l 62 37 l 62 12 l 50 12 l 50 33 q 0 54 50 38 q 83 257 58 178 q 166 431 126 320 q 141 485 141 454 l 166 593 l 166 597 q 137 709 166 614 l 137 722 q 191 808 137 736 l 191 821 l 186 829 q 191 833 191 829 q 174 838 181 833 q 71 684 122 684 q 50 713 50 690 l 50 718 l 58 718 l 58 709 q 100 812 100 709 q 161 854 127 848 q 170 867 166 867 l 166 887 l 166 891 q 228 954 174 954 l 236 954 m 174 825 l 186 825 l 186 821 q 174 817 182 821 l 174 825 m 186 812 q 166 800 186 806 l 166 808 l 186 812 m 630 481 q 638 473 631 473 l 643 473 q 634 481 643 481 l 630 481 m 323 112 l 319 91 l 319 62 q 348 41 321 52 l 348 45 q 328 112 344 68 l 323 112 z "},"e":{"ha":1059,"x_min":0,"x_max":1040,"o":"m 928 1036 q 967 893 954 1036 q 898 643 947 734 l 898 638 q 937 500 928 585 q 923 412 923 435 q 1016 255 923 368 q 1040 127 1040 223 l 1040 64 q 1021 0 1040 59 l 952 0 q 932 24 942 2 q 981 64 932 51 l 981 123 q 977 142 981 142 q 913 231 977 208 q 898 152 903 231 q 840 9 898 106 l 790 15 l 770 15 q 755 29 755 22 l 755 39 q 775 68 755 60 q 834 138 834 68 q 825 221 834 177 q 731 338 825 238 q 677 329 684 329 q 643 358 665 350 q 589 349 601 349 q 441 304 545 304 q 408 182 408 304 q 363 15 408 92 q 270 9 286 9 q 250 29 255 9 l 255 64 q 314 123 314 98 q 304 250 314 177 q 275 334 304 316 q 167 628 222 373 q 142 672 142 661 l 29 672 q 0 726 0 713 l 0 775 q 39 790 20 775 q 88 834 80 790 q 162 869 88 847 q 235 854 228 854 q 358 717 242 854 q 599 672 358 672 q 820 677 764 677 q 869 755 828 677 q 928 1036 928 959 z "},"f":{"ha":836,"x_min":0,"x_max":817,"o":"m 646 963 q 711 932 694 932 l 756 938 q 797 932 761 938 l 807 938 q 817 882 817 918 l 817 872 l 802 852 q 762 807 762 815 q 706 777 706 787 l 706 762 q 716 721 706 739 q 686 686 693 721 l 686 646 q 726 509 703 646 q 706 418 726 475 q 691 156 691 216 l 691 151 l 686 126 q 691 121 691 126 l 686 111 q 721 50 707 50 q 675 10 721 26 q 661 25 661 18 l 650 20 l 646 20 q 630 40 637 20 q 635 45 635 40 l 635 56 l 625 71 l 625 76 l 630 106 l 620 136 q 630 186 625 145 l 620 192 q 625 212 620 203 q 615 292 615 241 q 595 282 603 282 q 559 166 577 178 l 559 136 q 605 25 559 107 q 600 0 600 17 l 545 0 q 504 45 504 22 l 479 45 q 424 50 444 50 l 414 50 q 333 40 340 40 l 328 40 q 308 45 308 40 q 262 71 262 45 l 247 71 q 232 81 232 71 q 186 66 195 66 l 182 66 q 0 131 37 66 l 25 131 q 131 106 91 111 l 146 106 q 252 151 252 135 l 252 227 l 247 237 q 272 288 257 271 q 323 433 294 378 q 429 590 406 574 q 484 716 450 716 l 479 746 q 499 842 491 825 l 494 842 q 479 817 483 842 l 474 817 q 459 832 459 825 l 464 857 q 570 958 503 935 l 595 958 l 646 963 z "},"g":{"ha":817,"x_min":0,"x_max":791,"o":"m 214 957 q 283 932 283 957 q 355 844 331 932 l 355 840 q 343 808 355 827 q 391 715 343 715 l 399 715 l 484 739 l 634 739 q 763 783 724 783 q 791 771 774 783 q 727 727 791 742 q 626 662 669 672 q 642 566 642 589 q 634 521 642 555 q 650 484 646 484 q 703 258 650 332 l 703 250 l 682 222 q 670 226 678 222 l 662 222 q 630 246 630 239 l 630 262 q 573 448 630 389 q 545 492 555 492 q 513 477 532 492 q 529 440 513 465 q 509 363 529 429 l 513 355 l 513 347 q 469 319 513 319 q 456 323 464 319 q 444 315 456 319 q 420 335 420 328 q 428 351 425 335 q 477 395 472 374 q 460 424 477 417 l 452 424 q 408 380 408 390 q 412 339 408 360 l 412 335 q 384 113 397 130 l 384 97 q 395 41 384 93 l 395 33 q 347 4 395 16 q 331 8 338 4 l 315 0 q 299 41 302 0 q 331 226 331 80 l 331 295 q 254 351 331 339 q 242 258 250 347 q 190 85 242 144 q 165 97 170 85 q 141 89 153 89 l 133 89 q 121 117 125 89 l 133 133 q 182 198 182 159 l 182 258 q 165 368 182 275 q 125 448 125 426 l 125 480 q 117 573 125 553 q 121 577 121 573 l 121 593 q 101 743 101 722 q 56 791 101 778 q 0 856 16 810 q 4 872 0 865 l 0 880 q 8 905 0 891 l 4 905 q 12 924 4 911 q 105 913 105 920 q 133 945 105 945 l 137 945 l 145 941 q 194 957 170 957 l 214 957 z "},"h":{"ha":749,"x_min":0,"x_max":725,"o":"m 87 957 q 121 932 92 957 l 164 932 q 203 952 164 952 l 261 952 q 290 943 274 952 q 256 827 290 893 q 266 744 266 762 q 261 730 261 735 q 353 691 285 730 q 391 701 391 694 l 416 696 l 507 696 q 512 711 507 701 l 479 807 l 479 812 q 507 865 479 835 q 589 677 547 865 q 623 609 589 652 q 677 507 677 554 l 677 425 q 672 406 677 414 q 686 329 686 359 l 686 271 q 705 125 705 192 q 725 48 725 79 q 686 43 721 48 q 672 48 677 48 q 652 43 663 43 q 648 48 652 48 q 643 43 648 43 l 638 53 l 638 63 q 657 159 652 73 q 580 382 657 241 q 527 425 580 422 q 439 309 471 390 q 454 237 454 267 q 382 53 412 53 l 387 9 q 353 0 362 0 q 348 5 348 0 l 323 0 l 300 5 q 295 0 300 0 l 285 14 l 285 24 q 314 68 314 51 q 285 275 290 172 l 237 382 q 232 387 232 382 l 222 382 l 189 382 q 150 391 184 382 l 145 368 q 189 92 145 352 q 193 87 193 92 l 189 77 q 203 29 203 52 l 203 14 q 174 9 199 14 l 164 14 q 150 9 155 9 l 116 14 l 116 34 q 136 68 136 56 q 63 314 136 125 l 58 348 q 63 377 58 351 q 34 479 34 467 l 34 484 q 87 667 66 667 q 53 734 74 667 q 14 827 35 744 q 29 870 29 859 q 0 937 0 915 q 9 952 5 952 l 87 957 m 353 357 q 348 343 353 353 q 368 136 357 298 l 377 136 q 391 241 391 196 q 357 357 357 330 l 353 357 z "},"i":{"ha":1031,"x_min":0,"x_max":1019,"o":"m 869 856 l 869 851 q 851 789 851 804 q 935 719 906 728 q 962 680 962 692 l 958 680 q 935 688 943 688 l 931 680 q 966 644 940 680 q 1019 565 997 644 q 842 437 968 437 l 847 459 l 847 463 l 825 459 l 821 459 q 838 498 838 482 l 838 543 l 842 565 q 794 587 811 587 q 785 530 785 551 q 807 119 785 330 q 794 31 807 31 q 697 0 736 31 l 675 0 l 648 5 q 644 0 644 5 q 556 53 556 0 q 551 97 551 76 q 560 229 551 181 l 551 225 q 477 260 551 231 q 441 273 473 273 q 401 137 420 242 q 361 88 387 88 q 317 79 328 84 q 212 111 261 88 q 172 14 172 67 q 97 9 112 9 q 26 44 26 16 q 0 176 0 95 l 18 176 q 150 300 102 208 q 194 459 153 367 q 278 595 278 557 l 300 609 q 344 547 319 547 q 574 587 574 564 q 710 745 619 611 q 798 812 747 791 q 816 842 816 831 l 821 842 q 825 833 821 833 q 869 856 863 856 z "},"j":{"ha":927,"x_min":0,"x_max":876,"o":"m 865 914 q 876 804 865 859 l 859 715 q 865 672 865 694 l 842 666 q 804 551 804 666 q 810 545 810 551 q 793 463 798 479 q 699 149 699 235 q 705 121 705 140 q 743 77 735 100 l 743 72 q 722 60 743 60 q 743 22 743 30 l 727 0 q 650 50 650 0 l 650 88 q 628 110 636 110 l 633 149 q 611 353 622 328 q 551 380 611 363 q 380 435 448 435 q 347 424 365 435 l 242 330 q 116 215 116 298 q 138 182 116 203 l 138 176 q 104 143 138 143 l 104 149 q 66 182 90 149 q 77 226 77 202 l 77 242 q 50 171 60 239 q 77 121 77 146 q 44 104 73 104 l 39 104 q 0 138 0 104 q 22 292 16 210 q 138 397 96 336 q 203 556 174 519 l 203 562 l 176 562 q 165 572 165 562 l 165 584 l 176 600 q 595 650 595 626 q 722 771 687 650 l 710 821 q 722 865 710 825 l 722 925 q 777 842 777 878 l 804 848 l 810 848 l 821 842 q 865 925 821 878 l 865 914 z "},"k":{"ha":574,"x_min":0,"x_max":553,"o":"m 475 648 l 502 643 l 499 624 q 513 559 513 584 q 475 480 513 522 q 472 472 472 475 q 483 442 483 452 q 480 382 480 395 q 505 247 505 288 q 499 149 505 217 q 524 71 499 71 q 553 57 553 63 l 553 49 q 505 30 553 37 q 464 68 464 30 q 429 163 429 127 l 426 163 q 372 122 421 143 l 372 119 q 374 117 374 119 l 393 119 l 412 119 q 431 109 427 119 l 431 103 q 380 79 431 79 q 418 24 380 41 l 423 16 l 423 14 q 393 0 423 4 l 388 0 q 320 33 351 0 l 304 33 q 252 49 279 33 q 176 46 191 46 q 81 98 102 46 q 79 117 79 109 q 84 160 79 125 q 68 165 75 165 l 54 165 q 30 111 45 165 q 3 95 16 95 l 0 95 q 3 117 0 102 q 0 165 0 149 q 41 203 0 193 l 57 203 q 100 195 71 203 q 160 293 111 208 q 236 361 184 317 l 236 363 q 214 418 222 378 q 155 456 172 429 q 98 488 155 478 q 84 499 98 490 q 152 529 99 529 l 160 529 q 231 526 185 529 q 399 572 319 572 q 475 648 429 648 z "},"l":{"ha":1261,"x_min":16,"x_max":1230,"o":"m 260 718 q 340 642 288 718 q 503 515 398 515 l 554 515 l 838 540 q 966 515 880 540 l 1011 530 q 1123 474 1076 530 q 1230 377 1177 377 q 1225 372 1230 372 q 1230 367 1225 367 q 1204 352 1230 355 q 1154 377 1183 352 q 1031 474 1070 474 l 1021 474 q 1017 458 1021 469 l 1047 423 q 1077 281 1057 349 l 1072 256 l 1103 179 q 1087 93 1103 159 l 1087 32 q 1057 1 1087 1 l 1042 1 l 1042 6 q 996 37 996 18 l 996 42 q 1042 108 1042 81 l 1042 149 q 991 184 1036 165 q 981 134 991 176 q 986 57 986 89 l 986 47 q 950 26 977 26 q 940 37 940 26 q 925 32 935 37 q 895 57 895 47 q 899 73 895 62 q 935 138 935 104 l 935 144 q 925 184 935 165 q 793 266 878 201 l 788 266 q 448 138 595 138 l 442 138 q 417 67 439 67 q 366 16 400 16 l 356 22 q 351 16 356 16 l 320 16 q 280 52 301 45 l 285 77 q 326 134 326 96 l 326 174 q 229 326 275 217 l 224 326 l 224 316 l 214 316 q 183 428 183 410 q 122 464 183 464 l 102 464 q 61 515 61 487 q 16 585 16 568 l 26 601 q 138 672 109 636 q 260 718 138 718 z "},"m":{"ha":1141,"x_min":0,"x_max":1109,"o":"m 924 916 q 1030 845 1030 907 q 1109 792 1089 792 l 1109 774 q 1030 722 1072 722 l 1039 678 l 1039 661 l 1030 661 l 1030 678 l 986 678 q 942 730 942 710 l 916 730 q 792 440 875 730 q 757 194 768 440 q 774 88 764 88 q 819 62 819 85 l 819 35 l 792 35 q 669 88 748 35 q 678 97 669 97 q 652 185 671 185 q 669 237 669 214 l 669 334 q 678 343 669 343 q 669 352 678 352 l 678 396 l 678 405 q 484 458 678 420 q 405 502 484 484 l 361 502 q 299 334 324 444 q 185 212 185 227 l 185 123 q 229 9 229 21 l 212 0 l 185 0 q 123 237 150 0 q 115 255 115 237 q 176 317 121 255 q 185 308 176 308 l 185 317 q 176 326 176 317 q 194 343 194 326 q 185 352 185 343 q 212 414 205 352 q 194 555 194 514 l 185 555 q 88 449 149 449 l 18 449 q 123 484 18 471 q 229 634 170 597 q 616 722 288 678 q 766 783 756 757 l 924 916 m 0 449 l 18 449 l 18 440 l 0 440 l 0 449 m 141 264 l 132 246 l 132 237 l 141 237 q 150 264 141 247 l 141 264 z "},"n":{"ha":1706,"x_min":0,"x_max":1664,"o":"m 345 961 q 374 928 365 951 q 370 916 374 924 l 374 916 l 370 895 q 325 807 360 884 l 362 791 l 358 782 l 358 774 q 441 720 381 737 q 454 724 449 724 q 495 715 476 724 q 499 720 495 720 l 528 720 l 536 715 l 536 720 q 570 707 547 720 l 620 711 l 774 674 q 1319 516 1230 516 l 1323 516 q 1348 524 1335 516 q 1436 520 1402 520 l 1440 520 q 1485 503 1450 520 l 1493 507 q 1506 503 1498 507 l 1514 507 l 1535 503 q 1565 532 1535 532 l 1569 532 l 1569 528 l 1565 507 l 1585 520 q 1594 512 1592 520 l 1594 470 q 1631 412 1610 452 l 1627 404 l 1664 345 q 1643 325 1664 334 l 1623 329 q 1619 316 1623 324 q 1560 353 1605 316 l 1556 353 l 1556 329 q 1664 275 1664 289 l 1664 262 l 1635 254 q 1556 287 1582 287 l 1552 287 q 1510 267 1538 287 q 1493 287 1498 287 l 1473 287 q 1423 308 1423 287 l 1390 308 q 1286 279 1320 279 q 1198 287 1219 283 q 1157 262 1176 279 q 1095 166 1157 204 q 994 113 994 166 q 1003 79 1000 113 q 990 33 998 52 l 986 33 q 949 62 949 55 q 965 137 961 103 q 961 154 961 144 l 961 175 l 965 183 q 1007 216 991 183 l 1007 224 q 998 267 998 232 q 857 208 918 208 l 849 208 l 807 212 l 807 216 q 949 300 807 234 q 1031 366 1008 366 q 1177 445 1095 414 q 1323 499 1323 478 l 1323 503 q 1061 562 1245 516 q 661 690 701 690 q 653 678 661 678 q 620 657 626 657 l 620 653 q 666 516 645 612 q 645 524 651 516 q 599 661 645 597 l 595 661 q 562 649 564 661 q 445 645 477 645 q 312 649 401 645 q 296 628 312 637 q 258 587 272 587 q 262 553 258 572 q 250 520 262 541 q 267 479 264 505 l 262 462 q 279 420 262 439 q 325 337 317 382 l 325 333 q 279 287 279 298 q 283 271 279 278 l 279 262 l 283 245 q 142 96 270 193 q 129 41 137 50 l 129 33 l 146 29 l 146 21 q 125 0 130 0 l 121 0 q 25 29 81 0 q 66 100 25 37 q 25 137 33 118 q 0 162 0 151 l 12 179 l 79 229 q 150 329 92 272 l 150 337 q 137 387 137 347 q 58 495 58 463 l 58 549 q 92 628 58 576 l 66 641 l 71 670 q 154 828 71 772 q 216 873 216 850 l 220 873 l 241 869 l 237 920 q 250 928 237 928 q 329 961 250 946 l 345 961 z "},"o":{"ha":892,"x_min":0,"x_max":880,"o":"m 180 937 l 184 937 q 198 954 184 954 l 202 954 q 229 866 202 943 q 321 747 318 774 q 374 686 374 691 q 453 646 408 673 q 620 655 580 655 q 787 620 787 647 l 787 611 q 779 602 787 602 q 818 524 818 556 l 818 462 q 823 382 818 400 q 880 237 823 302 q 848 66 863 66 l 831 66 l 787 71 l 787 79 q 827 154 827 125 l 827 184 q 818 224 827 196 q 730 356 730 341 l 726 356 l 726 343 q 783 264 726 330 l 779 264 q 717 101 746 101 q 703 106 712 101 l 686 101 q 664 119 669 101 q 677 132 671 132 q 726 198 711 132 l 726 211 q 673 290 726 265 q 602 448 602 380 l 576 435 q 400 347 438 347 l 378 347 l 347 352 q 334 140 334 282 l 334 136 l 338 106 q 321 18 323 106 q 260 0 321 0 q 242 9 252 0 q 281 110 281 77 q 269 294 275 294 l 264 294 l 269 286 l 269 255 l 264 211 q 269 207 269 211 q 264 202 264 207 l 264 158 l 269 115 q 260 106 260 115 l 260 53 q 246 39 252 39 l 207 39 q 180 53 184 39 l 180 62 q 224 119 219 97 q 193 374 224 251 q 149 497 170 410 q 172 589 172 578 q 127 682 172 656 q 92 655 92 662 q 66 660 73 655 q 0 726 18 660 l 0 743 q 4 747 0 747 q 57 796 4 796 l 57 814 q 149 888 57 857 q 176 963 155 963 l 180 963 l 180 937 z "},"p":{"ha":633,"x_min":35,"x_max":616,"o":"m 325 758 q 366 722 335 758 l 410 722 l 454 718 q 562 753 454 753 q 606 718 606 753 q 616 682 606 699 l 606 682 l 584 696 l 580 696 q 530 629 557 629 q 486 481 530 548 q 499 338 499 382 q 490 280 490 285 q 499 204 495 209 q 495 199 499 199 l 499 177 l 499 164 q 544 21 499 71 q 508 12 528 12 q 459 66 459 12 q 410 258 451 74 l 406 258 q 352 235 380 239 l 312 235 q 302 195 302 219 q 321 12 316 98 q 325 3 325 12 q 298 -6 311 -6 l 254 -6 q 245 3 245 -6 q 262 83 262 71 l 240 168 l 236 168 l 236 159 q 245 83 245 99 q 218 75 230 75 q 204 88 212 75 q 200 199 204 133 q 209 253 209 231 l 209 258 q 160 316 209 316 q 138 231 142 267 q 178 43 138 178 q 151 35 163 35 l 128 35 q 115 47 125 35 q 124 75 124 66 q 106 146 124 87 l 106 164 q 111 168 106 168 q 66 316 66 239 q 57 370 58 316 l 57 382 q 88 508 57 429 q 35 629 35 614 q 124 749 35 666 l 124 727 q 93 615 124 697 l 93 611 q 138 535 93 576 q 186 548 157 544 q 254 544 225 544 q 276 562 274 552 l 276 615 q 209 731 209 675 l 214 731 q 325 758 274 758 z "},"q":{"ha":435,"x_min":0,"x_max":396,"o":"m 323 434 q 345 372 323 378 q 396 347 345 358 q 374 315 396 326 q 388 301 388 303 l 388 298 q 363 282 385 289 q 353 285 359 285 l 339 285 q 320 228 332 249 l 323 217 q 312 179 312 190 q 260 49 260 94 l 260 46 q 277 24 277 37 l 277 22 l 271 22 l 271 19 q 288 8 283 19 l 288 5 q 274 0 283 5 q 247 5 254 3 l 233 65 q 220 136 225 136 l 136 168 l 136 165 q 114 103 114 111 l 114 100 q 127 73 114 87 q 155 60 155 69 q 136 52 155 56 q 90 119 104 52 l 95 138 l 95 146 q 76 171 95 162 l 76 168 q 87 98 85 149 l 87 95 q 57 136 57 122 q 19 60 19 92 q 33 38 20 52 l 33 33 q 19 30 24 33 l 0 38 q 3 62 0 52 q 16 136 3 107 l 16 225 l 19 241 q 114 298 51 298 q 187 285 169 285 q 228 296 205 285 q 255 328 239 313 q 250 382 250 355 q 258 401 250 391 q 282 374 264 401 q 317 434 298 374 l 323 434 z "},"r":{"ha":1088,"x_min":0,"x_max":1063,"o":"m 206 850 q 378 718 254 850 q 618 644 491 644 q 817 651 751 651 q 844 664 827 651 q 950 797 903 764 l 963 797 l 963 770 q 890 644 890 671 q 950 558 890 607 q 1016 273 950 421 q 1063 66 1047 273 q 1016 40 1055 66 q 989 53 1016 48 q 1016 93 989 71 l 1016 119 q 977 219 998 219 l 977 66 q 930 53 956 66 q 910 60 930 60 l 910 73 q 943 100 910 82 q 917 219 943 130 q 784 412 784 374 l 744 405 q 730 425 730 405 l 691 425 q 551 378 629 425 q 498 266 498 378 l 498 159 l 492 126 q 498 106 498 126 l 498 100 l 485 100 q 432 0 452 0 l 399 0 q 372 14 382 14 l 372 33 q 438 146 438 50 l 438 206 l 432 286 l 425 286 q 412 113 412 170 q 378 86 388 113 q 338 40 378 40 l 292 47 l 292 60 l 299 73 q 366 226 366 73 q 312 425 366 378 q 252 564 274 564 l 212 558 l 212 578 l 239 585 l 239 604 q 140 677 202 677 q 119 664 140 671 q 0 724 0 690 l 0 737 q 93 777 77 777 q 193 850 93 825 l 206 850 z "},"s":{"ha":1255,"x_min":0,"x_max":1226,"o":"m 1104 953 q 1148 918 1128 918 l 1162 918 l 1221 923 q 1226 918 1221 918 q 1182 816 1226 835 l 1162 816 q 1143 821 1152 816 q 977 659 1028 821 q 943 498 966 540 q 855 132 855 420 l 855 127 q 880 78 855 89 l 913 78 q 918 64 913 73 q 904 49 911 49 l 865 49 q 840 34 865 34 q 782 107 782 34 q 762 132 782 119 l 762 264 q 757 395 762 305 q 718 410 739 410 l 518 459 q 435 439 461 459 q 332 322 394 376 q 137 171 137 275 l 137 142 q 151 132 151 142 l 151 122 q 142 113 151 113 l 122 113 q 98 137 98 130 q 132 254 98 182 l 132 259 q 39 137 39 212 l 39 117 q 54 83 54 100 l 54 78 l 39 78 q 0 117 3 78 q 58 283 0 169 q 220 425 168 325 q 283 601 258 553 l 283 606 q 58 674 193 640 l 58 679 l 68 679 q 308 625 120 679 q 503 659 393 645 q 777 718 668 659 q 947 874 815 718 q 1060 958 972 958 l 1075 958 l 1104 953 z "},"t":{"ha":1526,"x_min":0,"x_max":1517,"o":"m 1259 852 q 1421 781 1421 843 l 1436 781 q 1517 751 1506 781 l 1517 746 q 1335 660 1517 674 q 1299 665 1319 660 l 1294 665 q 1370 629 1294 635 q 1375 634 1370 634 l 1406 634 q 1451 614 1417 634 l 1451 604 q 1421 578 1442 585 q 1365 593 1399 578 q 1319 583 1357 593 q 1279 528 1292 583 q 1202 462 1254 477 q 1091 304 1171 376 q 878 188 1019 277 q 852 142 869 153 q 791 117 831 142 q 548 0 695 0 l 513 5 q 391 56 391 33 l 391 86 q 482 203 482 155 l 456 254 l 462 264 q 441 284 454 264 q 446 299 441 290 l 446 304 l 436 299 q 401 441 401 405 l 401 452 l 406 487 l 396 492 l 340 492 q 162 446 162 484 q 15 396 15 404 q 0 411 0 404 l 0 421 l 5 431 l 0 431 q 132 538 52 503 q 401 589 189 573 l 441 589 q 660 680 563 680 q 852 660 804 670 q 949 690 876 660 l 975 685 q 1015 695 983 685 l 1015 690 q 1030 695 1020 690 q 1071 690 1066 690 q 1137 746 1100 690 q 1122 791 1137 758 q 1167 827 1122 809 q 1259 852 1167 833 m 726 284 q 705 279 714 284 l 705 264 q 695 259 705 259 q 624 162 680 210 q 695 117 661 117 l 705 117 l 705 127 q 751 157 751 149 l 751 162 l 726 162 l 701 168 l 701 172 q 730 229 713 229 l 761 229 q 791 218 775 229 q 787 233 791 224 l 766 264 l 756 259 q 726 284 726 272 m 644 86 q 568 122 615 86 q 492 71 492 94 q 599 41 549 43 l 644 71 l 644 86 z "},"u":{"ha":1488,"x_min":0,"x_max":1457,"o":"m 0 789 q 24 779 8 789 q 174 644 70 734 q 344 562 198 644 q 440 581 426 581 l 435 591 q 653 552 570 557 q 895 600 895 570 l 968 600 q 1123 663 1123 642 l 1084 702 q 1200 677 1136 687 q 1215 682 1205 677 q 1316 595 1316 631 q 1394 528 1316 576 q 1350 484 1356 484 l 1331 484 l 1307 489 q 1302 484 1307 484 l 1302 489 q 1268 513 1268 505 l 1263 513 l 1253 508 q 1249 513 1253 513 l 1239 513 l 1239 503 l 1249 503 q 1287 465 1275 465 l 1287 435 q 1273 431 1282 435 q 1234 450 1259 445 q 1166 484 1234 484 l 1162 484 q 1113 421 1113 441 l 1128 372 l 1162 372 l 1171 378 q 1196 368 1171 368 q 1312 227 1312 283 l 1312 222 l 1297 222 q 1234 252 1286 222 q 1196 305 1218 305 l 1185 300 q 1147 310 1181 300 q 1166 276 1147 283 q 1321 145 1305 145 q 1457 82 1386 82 q 1452 77 1457 77 q 1457 63 1452 73 q 1409 34 1456 52 q 1350 43 1359 43 q 1297 73 1350 73 q 1230 121 1238 121 q 1060 213 1091 213 q 1006 281 1060 243 q 929 256 943 256 l 924 256 l 929 266 l 929 271 q 804 242 829 242 l 798 242 q 692 286 798 256 q 552 334 627 328 q 528 329 536 334 q 435 213 435 232 l 431 213 l 431 227 q 334 189 395 208 l 276 199 q 271 193 276 193 q 295 87 290 146 q 290 68 290 87 q 242 97 253 68 q 213 193 227 193 l 189 193 l 179 189 q 106 29 138 85 q 77 0 77 9 l 73 0 q 53 53 73 8 l 63 58 l 58 82 l 58 87 l 68 87 q 126 227 126 146 l 126 247 q 184 256 164 256 l 189 256 q 179 286 189 270 q 193 305 179 305 l 227 305 q 290 315 247 305 l 290 319 q 266 372 290 333 q 276 378 266 378 l 276 406 q 271 450 276 424 q 295 508 295 498 q 281 542 295 524 l 208 571 q 126 614 177 595 l 126 619 l 131 629 q 63 677 102 659 l 68 687 q 0 784 0 772 l 0 789 z "},"v":{"ha":1255,"x_min":25,"x_max":1236,"o":"m 1095 856 q 1124 827 1124 834 q 1223 838 1203 838 q 1236 803 1234 838 q 1206 745 1236 779 q 1101 663 1101 705 q 1013 435 1026 486 q 949 230 949 348 l 949 195 q 960 119 949 145 q 1007 78 1007 119 q 990 73 1001 78 q 943 78 958 78 q 890 142 905 140 l 884 142 q 879 125 884 136 q 890 66 879 94 l 943 31 l 943 14 l 902 8 l 879 8 q 826 102 860 23 q 832 149 826 116 q 826 318 826 243 l 826 323 q 715 318 733 318 q 610 336 692 318 l 574 318 l 534 336 q 511 294 511 336 q 440 166 440 185 l 440 142 q 493 78 440 113 l 493 73 l 487 60 q 481 66 481 60 l 469 60 l 458 60 l 446 66 l 446 60 q 399 160 406 60 l 388 160 q 364 131 380 159 l 364 55 q 405 31 405 43 l 405 20 q 382 2 405 11 q 317 60 317 10 q 323 84 317 74 q 311 154 311 139 q 364 277 364 212 q 329 464 358 328 q 218 429 281 429 l 183 429 q 25 488 79 429 l 83 481 l 130 481 q 358 540 204 481 q 668 599 422 599 l 686 599 q 744 622 706 599 q 955 774 833 622 q 1095 856 955 836 z "},"w":{"ha":1305,"x_min":0,"x_max":1267,"o":"m 786 939 q 894 894 854 939 q 933 825 894 845 q 1031 771 1031 783 l 1031 762 q 983 688 1031 739 l 1002 653 l 1002 648 q 943 604 998 637 l 943 570 q 939 501 943 543 q 958 418 958 456 l 958 408 q 948 275 948 288 l 948 270 q 963 231 948 256 q 1110 147 1057 188 q 1267 74 1267 113 q 1208 35 1267 35 l 1179 35 q 1120 0 1173 0 l 1076 0 q 1022 15 1060 0 q 600 54 1022 39 q 536 113 536 54 l 536 123 q 521 118 530 123 l 496 118 l 260 157 q 226 147 245 157 q 123 167 151 153 q 0 334 0 216 l 0 349 q 15 427 0 395 q 241 580 55 580 l 344 580 q 491 609 413 580 q 570 668 549 627 q 634 845 591 845 q 747 939 683 939 l 786 939 z "},"x":{"ha":1611,"x_min":0,"x_max":1579,"o":"m 188 769 q 258 728 216 742 q 347 640 295 640 q 523 452 523 520 l 541 452 q 593 458 562 452 q 705 417 681 417 l 711 417 l 957 475 q 1027 464 1017 464 q 1104 499 1053 464 q 1239 528 1190 505 l 1239 517 l 1227 499 q 1086 446 1086 468 l 1086 435 q 1186 288 1151 347 q 1251 300 1227 288 l 1286 329 l 1345 305 l 1356 311 q 1368 305 1356 305 q 1468 241 1398 241 l 1520 247 l 1520 235 l 1503 235 q 1515 223 1503 223 l 1556 223 q 1579 188 1556 216 q 1550 159 1579 164 q 1333 247 1474 171 q 1186 170 1283 245 l 1180 170 q 1039 223 1158 170 q 957 276 1008 267 q 822 241 844 264 q 646 123 758 123 q 599 135 643 123 l 605 106 l 605 100 q 517 77 532 77 q 294 106 459 77 l 264 106 q 212 71 212 77 q 141 24 143 43 l 112 29 l 77 0 l 64 0 q 12 24 20 0 l 12 41 l 18 53 q 188 100 134 72 q 264 159 218 142 q 399 182 399 169 l 399 188 q 347 258 347 213 l 340 258 l 340 252 q 347 199 347 220 l 347 176 q 282 164 290 170 q 258 170 271 170 l 241 170 q 176 141 224 170 q 29 94 104 94 q 0 106 29 106 l 0 112 q 24 141 24 129 q 135 153 129 146 q 335 235 259 235 l 335 258 q 352 305 335 276 l 317 370 q 247 528 301 528 l 229 528 q 159 499 197 499 l 117 499 q 24 581 77 499 l 24 587 q 106 605 64 599 q 135 652 112 637 q 241 687 241 652 q 188 764 212 722 l 188 769 m 129 746 q 164 722 153 746 q 217 693 217 708 l 217 669 l 188 669 q 129 746 181 669 m 170 616 q 153 623 164 616 l 141 616 l 141 610 q 146 616 146 610 q 159 605 157 616 l 153 593 l 159 593 q 170 605 168 593 l 170 616 m 387 481 q 311 587 387 552 l 305 575 l 305 570 q 329 541 321 541 q 382 440 376 440 l 387 440 l 387 481 m 1303 223 q 1362 199 1345 199 l 1392 199 l 1392 182 l 1403 188 q 1433 170 1418 170 l 1433 159 q 1398 141 1433 146 q 1286 212 1350 141 l 1286 217 q 1303 223 1292 217 z "},"y":{"ha":905,"x_min":45,"x_max":865,"o":"m 138 948 q 170 932 170 940 q 180 945 175 932 q 217 926 192 945 q 258 892 231 892 q 355 789 310 879 q 424 642 382 678 q 508 576 477 604 q 614 485 551 561 q 696 294 694 337 l 693 278 q 699 247 693 275 q 774 210 699 217 q 840 253 840 219 q 806 313 840 287 l 808 313 q 865 256 846 313 q 859 222 865 234 q 743 162 827 162 q 674 181 692 168 q 652 156 671 181 q 624 121 624 148 q 458 103 624 115 q 405 112 440 103 q 401 109 405 109 q 376 137 401 119 l 374 137 q 417 168 374 157 l 461 168 l 467 165 l 467 168 q 449 203 449 190 q 383 222 383 214 q 349 266 359 222 l 358 272 l 355 288 l 351 288 q 330 193 330 210 q 333 191 333 193 q 311 140 311 152 q 254 103 311 117 l 248 103 l 242 106 q 239 103 242 103 l 236 103 l 236 109 l 223 109 q 204 115 215 109 q 192 131 198 131 q 233 168 192 137 q 261 197 261 168 l 261 212 l 252 212 q 211 231 235 212 l 211 237 q 248 269 229 269 l 258 269 l 261 281 q 254 363 261 302 l 258 369 q 208 444 243 414 q 173 516 182 463 l 173 551 q 167 557 173 555 q 176 588 167 572 q 167 623 173 588 q 76 663 96 623 l 79 669 q 45 726 65 669 l 60 741 q 92 757 92 750 q 82 795 82 787 l 85 813 q 136 870 127 869 q 130 917 136 874 q 138 948 130 932 z "},"z":{"ha":854,"x_min":0,"x_max":838,"o":"m 781 933 q 819 867 802 933 l 838 867 l 838 838 q 800 791 800 796 l 800 762 q 714 505 800 540 q 638 276 638 342 q 676 105 644 105 l 714 95 l 714 66 l 676 66 l 676 57 q 714 9 714 15 l 714 0 l 657 0 q 591 229 631 0 q 534 362 565 362 q 304 343 494 362 q 219 181 304 309 q 210 153 210 163 q 295 76 241 76 l 304 57 l 286 47 l 276 47 q 172 153 218 47 l 162 153 l 162 95 q 219 28 162 84 l 219 9 q 191 0 209 9 q 181 9 191 9 l 181 0 q 105 172 149 0 q 153 257 153 220 l 153 267 q 76 343 106 337 l 66 324 l 66 248 q 9 124 41 139 l 0 124 q 19 257 0 159 q 9 334 9 294 l 19 353 l 9 353 q 200 572 9 500 q 572 695 572 617 q 591 743 591 695 q 572 762 572 743 l 572 772 q 714 876 593 772 q 781 933 734 876 z "},"{":{"ha":688,"x_min":0,"x_max":0,"o":""},"|":{"ha":688,"x_min":0,"x_max":0,"o":""},"}":{"ha":867,"x_min":0,"x_max":0,"o":""},"~":{"ha":688,"x_min":0,"x_max":0,"o":""},"":{"ha":456,"x_min":0,"x_max":0,"o":""},"":{"ha":772,"x_min":0,"x_max":0,"o":""},"":{"ha":688,"x_min":0,"x_max":0,"o":""},"":{"ha":688,"x_min":0,"x_max":0,"o":""},"":{"ha":856,"x_min":0,"x_max":0,"o":""},"":{"ha":688,"x_min":0,"x_max":0,"o":""},"":{"ha":688,"x_min":0,"x_max":0,"o":""},"":{"ha":694,"x_min":0,"x_max":0,"o":""},"":{"ha":1135,"x_min":0,"x_max":0,"o":""},"":{"ha":439,"x_min":0,"x_max":0,"o":""},"":{"ha":640,"x_min":0,"x_max":0,"o":""},"":{"ha":688,"x_min":0,"x_max":0,"o":""},"":{"ha":1135,"x_min":0,"x_max":0,"o":""},"":{"ha":454,"x_min":0,"x_max":0,"o":""},"":{"ha":457,"x_min":0,"x_max":0,"o":""},"":{"ha":688,"x_min":0,"x_max":0,"o":""},"":{"ha":688,"x_min":0,"x_max":0,"o":""},"":{"ha":688,"x_min":0,"x_max":0,"o":""},"":{"ha":694,"x_min":0,"x_max":0,"o":""},"":{"ha":800,"x_min":0,"x_max":0,"o":""},"":{"ha":694,"x_min":0,"x_max":0,"o":""},"":{"ha":345,"x_min":0,"x_max":0,"o":""},"":{"ha":694,"x_min":0,"x_max":0,"o":""},"":{"ha":688,"x_min":0,"x_max":0,"o":""},"":{"ha":487,"x_min":0,"x_max":0,"o":""},"":{"ha":640,"x_min":0,"x_max":0,"o":""},"":{"ha":1158,"x_min":0,"x_max":0,"o":""},"":{"ha":1332,"x_min":0,"x_max":0,"o":""},"":{"ha":1158,"x_min":0,"x_max":0,"o":""},"":{"ha":507,"x_min":0,"x_max":0,"o":""},"":{"ha":1044,"x_min":0,"x_max":0,"o":""},"":{"ha":1044,"x_min":0,"x_max":0,"o":""},"":{"ha":1044,"x_min":0,"x_max":0,"o":""},"":{"ha":1044,"x_min":0,"x_max":0,"o":""},"":{"ha":1044,"x_min":0,"x_max":0,"o":""},"":{"ha":1044,"x_min":0,"x_max":0,"o":""},"":{"ha":1436,"x_min":0,"x_max":0,"o":""},"":{"ha":949,"x_min":0,"x_max":0,"o":""},"":{"ha":781,"x_min":0,"x_max":0,"o":""},"":{"ha":781,"x_min":0,"x_max":0,"o":""},"":{"ha":781,"x_min":0,"x_max":0,"o":""},"":{"ha":781,"x_min":0,"x_max":0,"o":""},"":{"ha":446,"x_min":0,"x_max":0,"o":""},"":{"ha":446,"x_min":0,"x_max":0,"o":""},"":{"ha":446,"x_min":0,"x_max":0,"o":""},"":{"ha":446,"x_min":0,"x_max":0,"o":""},"":{"ha":1029,"x_min":0,"x_max":0,"o":""},"":{"ha":1054,"x_min":0,"x_max":0,"o":""},"":{"ha":1095,"x_min":0,"x_max":0,"o":""},"":{"ha":1095,"x_min":0,"x_max":0,"o":""},"":{"ha":1095,"x_min":0,"x_max":0,"o":""},"":{"ha":1095,"x_min":0,"x_max":0,"o":""},"":{"ha":1095,"x_min":0,"x_max":0,"o":""},"":{"ha":688,"x_min":0,"x_max":0,"o":""},"":{"ha":1095,"x_min":0,"x_max":0,"o":""},"":{"ha":1018,"x_min":0,"x_max":0,"o":""},"":{"ha":1018,"x_min":0,"x_max":0,"o":""},"":{"ha":1018,"x_min":0,"x_max":0,"o":""},"":{"ha":1018,"x_min":0,"x_max":0,"o":""},"":{"ha":836,"x_min":0,"x_max":0,"o":""},"":{"ha":760,"x_min":0,"x_max":0,"o":""},"":{"ha":848,"x_min":0,"x_max":0,"o":""},"":{"ha":625,"x_min":0,"x_max":0,"o":""},"":{"ha":625,"x_min":0,"x_max":0,"o":""},"":{"ha":625,"x_min":0,"x_max":0,"o":""},"":{"ha":625,"x_min":0,"x_max":0,"o":""},"":{"ha":625,"x_min":0,"x_max":0,"o":""},"":{"ha":625,"x_min":0,"x_max":0,"o":""},"":{"ha":986,"x_min":0,"x_max":0,"o":""},"":{"ha":614,"x_min":0,"x_max":0,"o":""},"":{"ha":616,"x_min":0,"x_max":0,"o":""},"":{"ha":616,"x_min":0,"x_max":0,"o":""},"":{"ha":616,"x_min":0,"x_max":0,"o":""},"":{"ha":616,"x_min":0,"x_max":0,"o":""},"":{"ha":349,"x_min":0,"x_max":0,"o":""},"":{"ha":349,"x_min":0,"x_max":0,"o":""},"":{"ha":349,"x_min":0,"x_max":0,"o":""},"":{"ha":349,"x_min":0,"x_max":0,"o":""},"":{"ha":772,"x_min":0,"x_max":0,"o":""},"":{"ha":751,"x_min":0,"x_max":0,"o":""},"":{"ha":685,"x_min":0,"x_max":0,"o":""},"":{"ha":685,"x_min":0,"x_max":0,"o":""},"":{"ha":685,"x_min":0,"x_max":0,"o":""},"":{"ha":685,"x_min":0,"x_max":0,"o":""},"":{"ha":685,"x_min":0,"x_max":0,"o":""},"":{"ha":688,"x_min":0,"x_max":0,"o":""},"":{"ha":685,"x_min":0,"x_max":0,"o":""},"":{"ha":718,"x_min":0,"x_max":0,"o":""},"":{"ha":718,"x_min":0,"x_max":0,"o":""},"":{"ha":718,"x_min":0,"x_max":0,"o":""},"":{"ha":718,"x_min":0,"x_max":0,"o":""},"":{"ha":589,"x_min":0,"x_max":0,"o":""},"":{"ha":685,"x_min":0,"x_max":0,"o":""},"":{"ha":589,"x_min":0,"x_max":0,"o":""},"":{"ha":349,"x_min":0,"x_max":0,"o":""},"":{"ha":694,"x_min":0,"x_max":0,"o":""},"":{"ha":694,"x_min":0,"x_max":0,"o":""},"":{"ha":832,"x_min":0,"x_max":0,"o":""},"":{"ha":694,"x_min":0,"x_max":0,"o":""},"":{"ha":694,"x_min":0,"x_max":0,"o":""},"":{"ha":694,"x_min":0,"x_max":0,"o":""},"":{"ha":694,"x_min":0,"x_max":0,"o":""},"":{"ha":694,"x_min":0,"x_max":0,"o":""},"":{"ha":694,"x_min":0,"x_max":0,"o":""},"":{"ha":751,"x_min":0,"x_max":0,"o":""},"":{"ha":1389,"x_min":0,"x_max":0,"o":""},"":{"ha":378,"x_min":0,"x_max":0,"o":""},"":{"ha":378,"x_min":0,"x_max":0,"o":""},"":{"ha":378,"x_min":0,"x_max":0,"o":""},"":{"ha":617,"x_min":0,"x_max":0,"o":""},"":{"ha":617,"x_min":0,"x_max":0,"o":""},"":{"ha":617,"x_min":0,"x_max":0,"o":""},"":{"ha":688,"x_min":0,"x_max":0,"o":""},"":{"ha":688,"x_min":0,"x_max":0,"o":""},"":{"ha":694,"x_min":0,"x_max":0,"o":""},"":{"ha":1389,"x_min":0,"x_max":0,"o":""},"":{"ha":428,"x_min":0,"x_max":0,"o":""},"":{"ha":428,"x_min":0,"x_max":0,"o":""},"":{"ha":232,"x_min":0,"x_max":0,"o":""},"":{"ha":688,"x_min":0,"x_max":0,"o":""},"":{"ha":688,"x_min":0,"x_max":0,"o":""},"":{"ha":1375,"x_min":0,"x_max":0,"o":""},"":{"ha":688,"x_min":0,"x_max":0,"o":""},"":{"ha":1540,"x_min":0,"x_max":0,"o":""},"":{"ha":1015,"x_min":0,"x_max":0,"o":""},"":{"ha":688,"x_min":0,"x_max":0,"o":""},"":{"ha":733,"x_min":0,"x_max":0,"o":""},"":{"ha":1027,"x_min":0,"x_max":0,"o":""},"":{"ha":818,"x_min":0,"x_max":0,"o":""},"":{"ha":688,"x_min":0,"x_max":0,"o":""},"":{"ha":688,"x_min":0,"x_max":0,"o":""},"":{"ha":688,"x_min":0,"x_max":0,"o":""},"":{"ha":451,"x_min":0,"x_max":0,"o":""},"":{"ha":688,"x_min":0,"x_max":0,"o":""},"":{"ha":688,"x_min":0,"x_max":0,"o":""},"":{"ha":688,"x_min":0,"x_max":0,"o":""},"":{"ha":728,"x_min":0,"x_max":0,"o":""},"":{"ha":733,"x_min":0,"x_max":0,"o":""}}}
